<svg fill="none" height="35" width="35" xmlns="http://www.w3.org/2000/svg"><g fill="#00b2ff"><path d="M11.07 8.585a.686.686 0 00-.966 0 .69.69 0 00-.2.483.685.685 0 001.367 0 .689.689 0 00-.2-.483z"/><path d="M34.8 2.859l-.845-.847.845-.845A.684.684 0 0033.833.2l-.845.845-.832-.834a.683.683 0 00-.484-.2L20.102.003H20.1c-.913 0-1.772.356-2.418 1.002L11.908 6.78a.684.684 0 00.967.967l5.774-5.774A2.04 2.04 0 0120.1 1.37h.002l11.286.007.634.634-2.537 2.537a2.805 2.805 0 00-3.419.422c-.529.529-.82 1.232-.82 1.98s.291 1.452.82 1.98a2.792 2.792 0 001.98.82c.717 0 1.434-.273 1.98-.82a2.806 2.806 0 00.425-3.415l2.537-2.537.645.646-.007 11.273a2.04 2.04 0 01-.601 1.451L16.344 33.033a2.04 2.04 0 01-1.452.601 2.04 2.04 0 01-1.452-.601L1.97 21.559c-.388-.387-.602-.903-.602-1.452s.214-1.064.602-1.452l7.368-7.37a.684.684 0 00-.966-.966L1 17.689c-.643.644-1 1.504-1 2.417s.356 1.773 1.002 2.42L12.473 34a3.41 3.41 0 002.419 1 3.41 3.41 0 002.419-1l16.68-16.684a3.4 3.4 0 001.003-2.417L35 3.342a.683.683 0 00-.2-.483zm-5.74 5.106c-.271.27-.631.42-1.014.42s-.742-.15-1.013-.42a1.435 1.435 0 011.013-2.447c.138 0 .277.02.41.06l-.789.789a.684.684 0 00.967.967l.787-.787a1.434 1.434 0 01-.361 1.418z"/><path d="M29.2 13.764l-7.966-7.967a2.71 2.71 0 00-3.828 0L4.8 18.406c-.511.51-.793 1.19-.793 1.914s.282 1.403.793 1.914l7.967 7.968c.511.51 1.19.793 1.914.793a2.69 2.69 0 001.913-.793L29.2 17.592a2.69 2.69 0 00.793-1.913 2.69 2.69 0 00-.793-1.914zm-.966 2.862L15.627 29.235a1.33 1.33 0 01-.947.392 1.33 1.33 0 01-.947-.392l-7.967-7.968a1.33 1.33 0 01-.392-.947c0-.358.139-.695.392-.948L18.373 6.764c.261-.262.604-.392.947-.392s.686.13.947.392l7.967 7.967c.253.253.392.59.392.948s-.14.694-.392.947z"/><path d="M22.29 13.677a.684.684 0 00-.966-.967l-.394.394c-1.051-.65-2.4-.562-3.252.29a2.48 2.48 0 00-.716 1.9c.034.704.337 1.376.853 1.892.55.55.611 1.384.137 1.859-.475.474-1.308.413-1.858-.137s-.612-1.384-.137-1.859a.684.684 0 00-.967-.967c-.853.853-.94 2.202-.29 3.253l-.468.467a.684.684 0 00.968.967l.467-.467c.46.283.975.427 1.482.427.652 0 1.29-.238 1.77-.718 1.007-1.007.946-2.708-.137-3.791a1.512 1.512 0 01-.454-.991 1.13 1.13 0 01.317-.868c.474-.475 1.308-.413 1.858.137s.611 1.384.137 1.858a.684.684 0 00.966.967c.853-.852.94-2.201.29-3.252zm-6.918 11.335L11.86 21.5a.684.684 0 00-.967.967l3.511 3.512a.682.682 0 00.967 0 .684.684 0 000-.967zm-5.384-5.385a.688.688 0 00-.483-.2.69.69 0 00-.483.2.69.69 0 00-.2.484.684.684 0 00.683.683.688.688 0 00.684-.683.689.689 0 00-.2-.484z"/></g></svg>