<svg fill="none" height="35" viewBox="0 0 35 35" width="35" xmlns="http://www.w3.org/2000/svg"><g fill="#00b2ff"><path d="m31.2638 27.8931c.3752-.5185.5971-1.1547.5971-1.842v-4.1077c0-.3776-.3061-.6836-.6836-.6836h-3.0551c-1.4123 0-2.5613 1.1489-2.5613 2.5613v2.23c0 .6869.2217 1.3227.5964 1.841-.4673.0758-.9169.2255-1.3362.4446-.9498-1.4172-2.5059-2.3946-4.294-2.5595-.007-.002-.0141-.0034-.0211-.0051.6397-.7144 1.0297-1.657 1.0297-2.6892v-5.5829c0-.3775-.3061-.6836-.6836-.6836h-4.1522c-1.7842 0-3.2356 1.4515-3.2356 3.2356v3.0308c0 1.0323.39 1.9748 1.0297 2.6892-.007.0017-.0141.0032-.0211.0052-1.7883.1648-3.3445 1.1424-4.2942 2.5598-.41944-.2191-.86911-.3689-1.33621-.4447.37475-.5183.59657-1.1542.59657-1.8412v-4.1077c0-.3776-.30611-.6836-.68359-.6836h-3.05512c-1.4123 0-2.56129 1.1489-2.56129 2.5613v2.23c0 .6874.22197 1.3235.59712 1.842-2.11593.3458-3.73618 2.186-3.73618 4.3982v2.0251c0 .3776.306113.6836.683594.6836h33.632806c.3775 0 .6836-.306.6836-.6836v-2.0251c0-2.2122-1.6203-4.0524-3.7362-4.3982zm-26.75755-4.072c0-.6585.53566-1.1941 1.1941-1.1941h2.37153v.8325c0 .4082-.33209.7403-.74027.7403h-2.82536zm0 1.7459h2.82536c.26045 0 .50983-.0478.74027-.1346v.6187c0 .983-.79974 1.7828-1.78282 1.7828-.98307 0-1.78281-.7998-1.78281-1.7828zm2.22353 3.6341-.44072.4407-.44071-.4407zm2.46811 2.3629v2.0688h-7.8307v-1.3415c0-1.5333 1.12266-2.8087 2.58897-3.0489l1.84953 1.8495c.12825.1282.30208.2002.48337.2002s.35513-.072.48337-.2002l1.85008-1.8502c.32676.0532.64101.1586.93386.3127-.2316.6265-.35848 1.3035-.35848 2.0096zm8.30221-5.8125c-1.4715 0-2.6686-1.1972-2.6686-2.6686v-.9035h4.0855c.453 0 .8795-.1157 1.2516-.319v1.2225c0 1.4714-1.1971 2.6686-2.6685 2.6686zm1.1915 1.3671-1.1916 1.1916-1.1916-1.1916zm-3.8602-7.0666h.0001c0-1.0303.8381-1.8684 1.8684-1.8684h3.4686v1.377c0 .6902-.5615 1.2517-1.2516 1.2517h-4.0855zm9.6035 13.5808h-1.3294-11.211-1.3294v-1.3672h4.4512c.3775 0 .6836-.306.6836-.6836 0-.3775-.3061-.6836-.6836-.6836h-4.4012c.293-1.9428 1.8482-3.4764 3.8007-3.7389l2.6008 2.6008c.1335.1335.3085.2002.4834.2002s.3499-.0667.4834-.2002l2.6008-2.6008c2.1708.2918 3.8507 2.1551 3.8507 4.4045zm2.4932-9.8117c0-.6585.5357-1.1941 1.1941-1.1941h2.3715v.8325c0 .4082-.332.7403-.7402.7403h-2.8254zm0 1.7459h2.8254c.2604 0 .5098-.0478.7402-.1346v.6187c0 .983-.7997 1.7828-1.7828 1.7828-.983 0-1.7828-.7998-1.7828-1.7828zm2.2235 3.6341-.4407.4407-.4407-.4407zm-3.3496 4.4317v-2.0688c0-.7062-.1268-1.3831-.3585-2.0098.2927-.1542.6069-.2595.9337-.3126l1.8503 1.8503c.1282.1282.3021.2002.4834.2002s.3551-.072.4833-.2002l1.8496-1.8495c1.4663.2402 2.5889 1.5156 2.5889 3.0489v1.3415z"/><path d="m20.8689 4.4665c-.267-.26694-.6997-.26694-.9668 0l-3.3544 3.35447-1.4501-1.45011c-.267-.26701-.6997-.26701-.9667-.00007s-.267.6998 0 .96681l1.9334 1.93347c.1283.12818.3021.20023.4834.20023s.3551-.07205.4834-.20023l3.8378-3.83783c.267-.26694.267-.69979 0-.96674z"/><path d="m20.295.592814c-.3447-.15374-.7489.001094-.9027.345898-.1538.344808.0011.749018.3459.902758 1.9823.88409 3.2633 2.85742 3.2633 5.02728 0 3.03352-2.468 5.50145-5.5015 5.50145-3.0336 0-5.5015-2.46793-5.5015-5.50145 0-2.15865 1.2717-4.12788 3.2397-5.01676.3441-.15538.4971-.56034.3416-.904391-.1554-.344121-.5605-.497041-.9043-.34166-2.4567 1.109611-4.0442 3.567881-4.0442 6.262741 0 3.78742 3.0813 6.86872 6.8687 6.86872 3.7873 0 6.8686-3.0813 6.8686-6.86865 0-2.70888-1.599-5.17234-4.0736-6.275936z"/><path d="m17.5245 0h-.0245c-.3775 0-.6836.306045-.6836.683594 0 .377546.3061.683596.6836.683596h.018.0033c.3761 0 .6818-.30393.6836-.680383.0017-.377549-.3029-.68502966-.6804-.686807z"/><path d="m17.9832 31.0987c-.127-.1271-.3034-.2003-.4832-.2003s-.3562.0732-.4833.2003c-.1271.1272-.2003.3035-.2003.4833s.0731.3562.2003.4833c.1272.1272.3035.2003.4833.2003s.3562-.0731.4832-.2003c.1272-.1271.2004-.3035.2004-.4833s-.0732-.3561-.2004-.4833z"/></g></svg>