<svg fill="none" height="38" viewBox="0 0 38 38" width="38" xmlns="http://www.w3.org/2000/svg"><g fill="#00b2ff"><path d="m23.4335 10.1332c.8246 0 1.5212.5313 1.7834 1.2666h6.5664c.2622-.7353.9589-1.2666 1.7835-1.2666 1.0475 0 1.9.8524 1.9 1.8999 0 1.0476-.8525 1.9-1.9 1.9-.8246 0-1.5213-.5313-1.7835-1.2666h-6.567c-.2622.7353-.9589 1.2666-1.7835 1.2666-1.0475 0-1.9-.8524-1.9-1.9 0-1.0475.8531-1.8999 1.9007-1.8999zm10.1333 2.5333c.349 0 .6333-.2838.6333-.6334 0-.3495-.2843-.6333-.6333-.6333s-.6333.2838-.6333.6333c0 .3496.2843.6334.6333.6334zm-10.1333 0c.3489 0 .6333-.2838.6333-.6334 0-.3495-.2844-.6333-.6333-.6333-.349 0-.6334.2838-.6334.6333 0 .3496.2844.6334.6334.6334z"/><path d="m18.3667 14.0497v-3.9165c0-.16845.0665-.32932.1856-.44775l2.5333-2.53329c.1185-.11906.28-.18556.4478-.18556h2.0165c.2622-.73529.9589-1.26665 1.7835-1.26665 1.0475 0 1.9.85245 1.9 1.89997s-.8525 1.89997-1.9 1.89997c-.8246 0-1.5213-.53136-1.7835-1.26665h-1.7543l-2.1622 2.16216v3.6543c.7353.2622 1.2667.9588 1.2667 1.7834 0 1.0475-.8525 1.9-1.9 1.9-1.0476 0-1.9-.8525-1.9-1.9 0-.8246.5313-1.5212 1.2666-1.7834zm6.9667-5.81646c.349 0 .6333-.28373.6333-.63332s-.2843-.63332-.6333-.63332-.6333.28373-.6333.63332.2843.63332.6333.63332zm-6.3333 8.23316c.3489 0 .6333-.2837.6333-.6333s-.2844-.6333-.6333-.6333c-.349 0-.6334.2837-.6334.6333s.2844.6333.6334.6333z"/><path d="m6.96667 16.4664c.2926 0 .5662.0716.81383.1906l1.08617-1.0861v-6.07106c0-.16846.0665-.32933.18556-.44776l6.33837-6.33829c-.119-.24763-.1906-.52123-.1906-.81382 0-1.047518.8525-1.89997 1.9-1.89997s1.9.852452 1.9 1.89997c0 1.04751-.8525 1.89997-1.9 1.89997-.2926 0-.5662-.07157-.8138-.19063l-6.1529 6.15273v6.07106c0 .1684-.0665.3293-.18553.4477l-1.27174 1.2717c.11907.2477.19064.5213.19064.8139 0 1.0475-.85247 1.8999-1.9 1.8999-1.04754 0-1.9-.8524-1.9-1.8999 0-1.0476.85246-1.9 1.9-1.9zm10.13333-13.93311c.349 0 .6333-.28373.6333-.63332 0-.3496-.2843-.63332-.6333-.63332s-.6333.28372-.6333.63332c0 .34959.2843.63332.6333.63332zm-10.13333 16.46641c.34896 0 .63333-.2837.63333-.6333s-.28437-.6334-.63333-.6334c-.34897 0-.63334.2838-.63334.6334s.28437.6333.63334.6333z"/><path d="m1.26696 8.98305v-2.64982c0-.16847.0665-.32933.18557-.44776l4.43333-4.43326c.11843-.11907.27993-.18556.44777-.18556h3.2832c.2622-.735292.95887-1.26665 1.78347-1.26665 1.0475 0 1.9.852452 1.9 1.89997 0 1.04751-.8525 1.89997-1.9 1.89997-.8246 0-1.52127-.53136-1.78347-1.26665h-3.021l-4.0622 4.06213v2.38763c.7353.2622 1.26666.95885 1.26666 1.78345 0 1.0475-.85246 1.9-1.9 1.9-1.047531 0-1.89999722-.8525-1.89999722-1.9 0-.8246.53136722-1.52125 1.26666722-1.78345zm10.13334-6.44976c.349 0 .6333-.28373.6333-.63332 0-.3496-.2843-.63332-.6333-.63332s-.6333.28372-.6333.63332c0 .34959.2843.63332.6333.63332zm-9.50001 8.86651c.34897 0 .63334-.2837.63334-.6333s-.28437-.6333-.63334-.6333c-.34896 0-.63333.2837-.63333.6333s.28437.6333.63333.6333z"/><path d="m10.133 34.3166v-9.1002c-.73467-.2622-1.26604-.9589-1.26604-1.7835 0-1.0475.85247-1.8999 1.90004-1.8999.8246 0 1.5212.5313 1.7834 1.2666h6.5664c.2622-.7353.9589-1.2666 1.7835-1.2666s1.5213.5313 1.7835 1.2666h3.6543l2.3528-2.3528c-.119-.2476-.1906-.5212-.1906-.8138 0-1.0475.8525-1.9 1.9-1.9s1.9.8525 1.9 1.9-.8525 1.9-1.9 1.9c-.2926 0-.5662-.0716-.8138-.1907l-2.5384 2.5384c-.1185.1191-.28.1856-.4478.1856h-3.9165c-.2622.7352-.9589 1.2666-1.7835 1.2666s-1.5213-.5314-1.7835-1.2666h-6.567c-.1913.5364-.6137.9588-1.1501 1.1501v9.1002c.7353.2622 1.2666.9588 1.2666 1.7834 0 1.0475-.8524 1.9-1.9 1.9-1.04751 0-1.89997-.8525-1.89997-1.9 0-.8246.53136-1.5212 1.26667-1.7834zm20.2673-14.0503c.349 0 .6333-.2837.6333-.6333s-.2843-.6333-.6333-.6333-.6333.2837-.6333.6333.2843.6333.6333.6333zm-9.5 3.8c.349 0 .6333-.2838.6333-.6334s-.2843-.6333-.6333-.6333-.6333.2837-.6333.6333.2843.6334.6333.6334zm-10.1333 12.6664c.3489 0 .6333-.2837.6333-.6333s-.2844-.6333-.6333-.6333c-.349 0-.6334.2837-.6334.6333s.2844.6333.6334.6333zm0-12.6664c.3489 0 .6333-.2838.6333-.6334s-.2844-.6333-.6333-.6333c-.349 0-.6334.2837-.6334.6333s.2844.6334.6334.6334z"/><path d="m13.2998 12.783v-2.0165c0-.1685.0665-.3293.1855-.4478l7.6051-7.60491c-.1191-.24763-.1906-.52123-.1906-.81382 0-1.047518.8524-1.89997 1.9-1.89997.8246 0 1.5212.531358 1.7834 1.26665h2.6499c.3496 0 .6333.28309.6333.63332v1.63777l2.3529 2.35279c.2476-.11906.5212-.19063.8138-.19063 1.0475 0 1.9.85246 1.9 1.89997 0 1.04752-.8525 1.89997-1.9 1.89997s-1.9-.85245-1.9-1.89997c0-.29259.0716-.56619.1906-.81382l-2.5384-2.53835c-.119-.11844-.1855-.2793-.1855-.44776v-1.26665h-2.0166c-.2622.73529-.9588 1.26665-1.7834 1.26665-.2926 0-.5662-.07157-.8139-.19063l-7.4195 7.41939v1.7543c.7353.2622 1.2667.9588 1.2667 1.7834 0 1.0475-.8525 1.9-1.9 1.9s-1.9-.8525-1.9-1.9c0-.8246.5314-1.5212 1.2667-1.7834zm17.7333-4.5498c.349 0 .6333-.28373.6333-.63333 0-.34959-.2843-.63332-.6333-.63332s-.6333.28373-.6333.63332c0 .3496.2843.63333.6333.63333zm-8.2333-5.69991c.3489 0 .6333-.28373.6333-.63332 0-.3496-.2844-.63332-.6333-.63332-.349 0-.6334.28372-.6334.63332 0 .34959.2844.63332.6334.63332zm-8.8667 12.66641c.349 0 .6333-.2837.6333-.6333s-.2843-.6333-.6333-.6333-.6333.2837-.6333.6333.2843.6333.6333.6333z"/><path d="m15.2 17.733c.8246 0 1.5213.5314 1.7835 1.2667h7.4543l3.6144-3.6144c.1185-.1191.28-.1856.4478-.1856h6.7045l1.5288-1.5288v-5.17551l-4.8861-4.88608c-.2477.11906-.5213.19063-.8139.19063-1.0475 0-1.9-.85246-1.9-1.89997 0-1.047518.8525-1.89997 1.9-1.89997 1.0476 0 1.9.852452 1.9 1.89997 0 .29259-.0715.56619-.1906.81382l5.0717 5.07165c.1191.11843.1856.27929.1856.44776v5.6999c0 .1685-.0665.3293-.1856.4478l-1.9 1.8999c-.1184.1191-.2799.1856-.4477.1856h-6.7045l-3.6144 3.6144c-.1185.119-.28.1855-.4478.1855h-7.7165c-.2622.7353-.9589 1.2667-1.7835 1.2667-1.0475 0-1.9-.8525-1.9-1.9s.8525-1.9 1.9-1.9zm15.8333-16.46635c-.3489 0-.6333.28372-.6333.63332 0 .34959.2844.63332.6333.63332.349 0 .6334-.28373.6334-.63332 0-.3496-.2844-.63332-.6334-.63332zm-15.8333 18.99965c.349 0 .6333-.2837.6333-.6333s-.2843-.6333-.6333-.6333-.6333.2837-.6333.6333.2843.6333.6333.6333z"/><path d="m1.90052 15.1998c.2926 0 .5662.0716.81383.1906l2.35284-2.3528v-3.65424c-.7353-.2622-1.26667-.95885-1.26667-1.78344 0-1.04752.85247-1.89997 1.9-1.89997s1.9.85245 1.9 1.89997c0 .82459-.53137 1.52124-1.26667 1.78344v3.91644c0 .1685-.0665.3294-.18556.4478l-2.5384 2.5383c.11907.2477.19063.5213.19063.8139 0 .8245-.53137 1.5212-1.26667 1.7834v.4877l4.8811 4.881c.11907.1184.18557.2793.18557.4477v.7499c.7353.2622 1.26667.9588 1.26667 1.7834s-.53137 1.5213-1.26667 1.7835v1.5003c.7353.2622 1.26667.9589 1.26667 1.7834 0 1.0476-.85247 1.9-1.9 1.9-1.04754 0-1.9-.8524-1.9-1.9 0-.8245.53136-1.5212 1.26666-1.7834v-1.5003c-.7353-.2622-1.26666-.9589-1.26666-1.7835s.53136-1.5212 1.26666-1.7834v-.4877l-4.8811-4.881c-.11906-.1184-.18556-.2793-.18556-.4477v-.7499c-.735302-.2622-1.26666929-.9589-1.26666929-1.7834 0-1.0476.85246629-1.9 1.89999929-1.9zm3.8-6.96656c.34897 0 .63333-.28373.63333-.63332s-.28436-.63332-.63333-.63332-.63333.28373-.63333.63332.28436.63332.63333.63332zm1.26667 24.69956c.34896 0 .63333-.2837.63333-.6333s-.28437-.6333-.63333-.6333c-.34897 0-.63334.2837-.63334.6333s.28437.6333.63334.6333zm0-5.0666c.34896 0 .63333-.2837.63333-.6333s-.28437-.6333-.63333-.6333c-.34897 0-.63334.2837-.63334.6333s.28437.6333.63334.6333zm-5.06667-10.1331c.34897 0 .63333-.2837.63333-.6333s-.28436-.6334-.63333-.6334-.63333.2838-.63333.6334.28436.6333.63333.6333z"/></g></svg>