<svg fill="none" height="52" viewBox="0 0 52 52" width="52" xmlns="http://www.w3.org/2000/svg"><g fill="#00b2ff"><path d="m32.0668 13.8665c1.1284 0 2.0817.7271 2.4405 1.7333h8.9856c.3588-1.0062 1.3121-1.7333 2.4405-1.7333 1.4335 0 2.6 1.1665 2.6 2.5999 0 1.4335-1.1665 2.6-2.6 2.6-1.1284 0-2.0817-.7272-2.4405-1.7333h-8.9865c-.3588 1.0061-1.3121 1.7333-2.4405 1.7333-1.4335 0-2.6-1.1665-2.6-2.6 0-1.4334 1.1674-2.5999 2.6009-2.5999zm13.8666 3.4666c.4776 0 .8667-.3883.8667-.8667s-.3891-.8666-.8667-.8666c-.4775 0-.8666.3882-.8666.8666s.3891.8667.8666.8667zm-13.8666 0c.4775 0 .8666-.3883.8666-.8667s-.3891-.8666-.8666-.8666c-.4776 0-.8667.3882-.8667.8666s.3891.8667.8667.8667z"/><path d="m25.1333 19.2259v-5.3594c0-.2305.091-.4507.2539-.6127l3.4667-3.46664c.162-.16293.383-.25393.6127-.25393h2.7595c.3588-1.00618 1.3121-1.7333 2.4405-1.7333 1.4335 0 2.6 1.16651 2.6 2.59997 0 1.4334-1.1665 2.5999-2.6 2.5999-1.1284 0-2.0817-.7271-2.4405-1.7333h-2.4007l-2.9588 2.9588v5.0006c1.0062.3588 1.7333 1.3121 1.7333 2.4405 0 1.4334-1.1665 2.5999-2.6 2.5999-1.4334 0-2.6-1.1665-2.6-2.5999 0-1.1284.7272-2.0817 1.7334-2.4405zm9.5333-7.9594c.4775 0 .8667-.3882.8667-.8666 0-.47841-.3892-.86667-.8667-.86667s-.8667.38826-.8667.86667c0 .4784.3892.8666.8667.8666zm-8.6667 11.2665c.4776 0 .8667-.3882.8667-.8666s-.3891-.8667-.8667-.8667c-.4775 0-.8666.3883-.8666.8667s.3891.8666.8666.8666z"/><path d="m9.53333 22.533c.4004 0 .77477.0979 1.11367.2608l1.4863-1.4863v-8.3077c0-.2305.091-.4507.254-.6127l8.6736-8.6735c-.163-.33886-.2609-.71325-.2609-1.11364 0-1.43345 1.1665-2.59996 2.6-2.59996s2.6 1.16651 2.6 2.59996c0 1.43344-1.1665 2.59995-2.6 2.59995-.4004 0-.7748-.09793-1.1137-.26086l-8.4196 8.41955v8.3077c0 .2305-.091.4507-.254.6127l-1.7402 1.7403c.1629.3388.2608.7132.2608 1.1136 0 1.4335-1.1665 2.6-2.59997 2.6-1.43346 0-2.6-1.1665-2.6-2.6 0-1.4334 1.16654-2.5999 2.6-2.5999zm13.86667-19.06639c.4775 0 .8667-.38826.8667-.86665 0-.4784-.3892-.86666-.8667-.86666s-.8667.38826-.8667.86666c0 .47839.3892.86665.8667.86665zm-13.86667 22.53299c.47757 0 .86667-.3883.86667-.8667s-.3891-.8666-.86667-.8666c-.47753 0-.86666.3882-.86666.8666s.38913.8667.86666.8667z"/><path d="m1.73328 12.2926v-3.62608c0-.23053.091-.45066.25394-.61272l6.06666-6.06657c.16207-.16293.38307-.25393.61274-.25393h4.49278c.3588-1.006179 1.3122-1.7333 2.4406-1.7333 1.4334 0 2.6 1.16651 2.6 2.59996 0 1.43344-1.1666 2.59995-2.6 2.59995-1.1284 0-2.0818-.72712-2.4406-1.7333h-4.13398l-5.5588 5.55871v3.26728c1.0062.3588 1.73333 1.3121 1.73333 2.4405 0 1.4334-1.16653 2.5999-2.6 2.5999s-2.599999-1.1665-2.599999-2.5999c0-1.1284.727133-2.0817 1.733329-2.4405zm13.86672-8.82599c.4775 0 .8666-.38826.8666-.86665 0-.4784-.3891-.86666-.8666-.86666-.4776 0-.8667.38826-.8667.86666 0 .47839.3891.86665.8667.86665zm-13.00005 12.13309c.47753 0 .86667-.3882.86667-.8666s-.38914-.8667-.86667-.8667-.86667.3883-.86667.8667.38914.8666.86667.8666z"/><path d="m13.8658 46.9595v-12.4529c-1.0054-.3588-1.7325-1.3121-1.7325-2.4405 0-1.4334 1.1665-2.6 2.6-2.6 1.1284 0 2.0817.7272 2.4405 1.7334h8.9856c.3588-1.0062 1.3122-1.7334 2.4406-1.7334s2.0817.7272 2.4405 1.7334h5.0007l3.2196-3.2197c-.1629-.3388-.2608-.7132-.2608-1.1136 0-1.4335 1.1665-2.6 2.6-2.6 1.4334 0 2.6 1.1665 2.6 2.6 0 1.4334-1.1666 2.5999-2.6 2.5999-.4004 0-.7748-.0979-1.1137-.2608l-3.4736 3.4735c-.1621.163-.3831.254-.6127.254h-5.3595c-.3588 1.0061-1.3121 1.7333-2.4405 1.7333s-2.0818-.7272-2.4406-1.7333h-8.9864c-.2618.734-.8398 1.3121-1.5739 1.5738v12.4529c1.0062.3588 1.7333 1.3121 1.7333 2.4405 0 1.4335-1.1665 2.6-2.6 2.6-1.4334 0-2.6-1.1665-2.6-2.6 0-1.1284.7272-2.0817 1.7334-2.4405zm27.7342-19.2267c.4775 0 .8666-.3882.8666-.8666s-.3891-.8667-.8666-.8667c-.4776 0-.8667.3883-.8667.8667s.3891.8666.8667.8666zm-13 5.2c.4775 0 .8666-.3883.8666-.8667s-.3891-.8666-.8666-.8666c-.4776 0-.8667.3882-.8667.8666s.3891.8667.8667.8667zm-13.8667 17.333c.4775 0 .8667-.3883.8667-.8667 0-.4783-.3892-.8666-.8667-.8666s-.8667.3883-.8667.8666c0 .4784.3892.8667.8667.8667zm0-17.333c.4775 0 .8667-.3883.8667-.8667s-.3892-.8666-.8667-.8666-.8667.3882-.8667.8666.3892.8667.8667.8667z"/><path d="m18.2 17.4925v-2.7594c0-.2305.091-.4507.2539-.6127l10.407-10.4068c-.163-.33886-.2609-.71325-.2609-1.11364 0-1.43345 1.1665-2.59996 2.6-2.59996 1.1284 0 2.0817.727121 2.4405 1.7333h3.6262c.4784 0 .8666.3874.8666.86666v2.24116l3.2197 3.21961c.3389-.16293.7133-.26086 1.1137-.26086 1.4334 0 2.6 1.16651 2.6 2.59993 0 1.4335-1.1666 2.6-2.6 2.6-1.4335 0-2.6-1.1665-2.6-2.6 0-.40037.0979-.77476.2608-1.11362l-3.4736-3.47354c-.1629-.16207-.2539-.3822-.2539-.61273v-1.7333h-2.7595c-.3588 1.00618-1.3121 1.7333-2.4405 1.7333-.4004 0-.7748-.09793-1.1137-.26086l-10.153 10.15285v2.4006c1.0062.3588 1.7334 1.3121 1.7334 2.4405 0 1.4334-1.1666 2.6-2.6 2.6-1.4335 0-2.6-1.1666-2.6-2.6 0-1.1284.7271-2.0817 1.7333-2.4405zm24.2667-6.226c.4775 0 .8666-.3883.8666-.8667 0-.47837-.3891-.86663-.8666-.86663-.4776 0-.8667.38826-.8667.86663 0 .4784.3891.8667.8667.8667zm-11.2667-7.79989c.4775 0 .8667-.38826.8667-.86665 0-.4784-.3892-.86666-.8667-.86666s-.8667.38826-.8667.86666c0 .47839.3892.86665.8667.86665zm-12.1333 17.33309c.4775 0 .8666-.3883.8666-.8667s-.3891-.8667-.8666-.8667c-.4776 0-.8667.3883-.8667.8667s.3891.8667.8667.8667z"/><path d="m20.8 24.2663c1.1284 0 2.0817.7271 2.4405 1.7333h10.2007l4.9461-4.946c.162-.1629.383-.2539.6127-.2539h9.1745l2.0922-2.0921v-7.0823l-6.6864-6.68625c-.3388.16293-.7132.26086-1.1136.26086-1.4335 0-2.6-1.16651-2.6-2.59995 0-1.43345 1.1665-2.59996 2.6-2.59996 1.4334 0 2.6 1.16651 2.6 2.59996 0 .40039-.098.77478-.2609 1.11364l6.9403 6.9402c.1629.162.2539.3821.2539.6127v7.7998c0 .2306-.091.4507-.2539.6128l-2.6 2.5999c-.1621.163-.3831.254-.6128.254h-9.1745l-4.9461 4.9459c-.162.163-.383.254-.6127.254h-10.5595c-.3588 1.0062-1.3121 1.7333-2.4405 1.7333-1.4335 0-2.6-1.1665-2.6-2.6 0-1.4334 1.1665-2.5999 2.6-2.5999zm21.6667-22.533c-.4776 0-.8667.38826-.8667.86666 0 .47839.3891.86665.8667.86665.4775 0 .8666-.38826.8666-.86665 0-.4784-.3891-.86666-.8666-.86666zm-21.6667 25.9996c.4775 0 .8667-.3883.8667-.8667s-.3892-.8666-.8667-.8666-.8667.3882-.8667.8666.3892.8667.8667.8667z"/><path d="m2.59997 20.7997c.4004 0 .7748.0979 1.11366.2609l3.21967-3.2196v-5.0006c-1.0062-.3588-1.73333-1.3121-1.73333-2.4405 0-1.43346 1.16653-2.59997 2.6-2.59997 1.43346 0 2.60003 1.16651 2.60003 2.59997 0 1.1284-.72717 2.0817-1.73337 2.4405v5.3594c0 .2305-.091.4506-.25393.6127l-3.4736 3.4735c.16294.3389.26087.7133.26087 1.1137 0 1.1283-.72714 2.0817-1.73334 2.4405v.6673l6.67937 6.6793c.163.162.254.3822.254.6127v1.0261c1.0062.3588 1.7333 1.3121 1.7333 2.4405s-.7271 2.0817-1.7333 2.4405v2.0531c1.0062.3588 1.7333 1.3121 1.7333 2.4405 0 1.4334-1.1665 2.5999-2.6 2.5999-1.43347 0-2.6-1.1665-2.6-2.5999 0-1.1284.72713-2.0817 1.73333-2.4405v-2.0531c-1.0062-.3588-1.73333-1.3121-1.73333-2.4405s.72713-2.0817 1.73333-2.4405v-.6673l-6.6794-6.6793c-.16293-.1621-.25393-.3822-.25393-.6127v-1.0261c-1.006199-.3588-1.73333266-1.3122-1.73333266-2.4405 0-1.4335 1.16653266-2.6 2.60000266-2.6zm5.2-9.5332c.47753 0 .86666-.3882.86666-.8666 0-.47841-.38913-.86667-.86666-.86667-.47754 0-.86667.38826-.86667.86667 0 .4784.38913.8666.86667.8666zm1.73333 33.7995c.4775 0 .8667-.3883.8667-.8667s-.3892-.8666-.8667-.8666c-.47753 0-.86667.3882-.86667.8666s.38914.8667.86667.8667zm0-6.9332c.4775 0 .8667-.3883.8667-.8667s-.3892-.8666-.8667-.8666c-.47753 0-.86667.3882-.86667.8666s.38914.8667.86667.8667zm-6.93333-13.8665c.47753 0 .86666-.3882.86666-.8666s-.38913-.8667-.86666-.8667c-.47754 0-.86667.3883-.86667.8667s.38913.8666.86667.8666z"/></g></svg>