<svg xmlns="http://www.w3.org/2000/svg" xmlns:xlink="http://www.w3.org/1999/xlink"><symbol id="icon-confidentiality"><g fill="#00b2ff"><path d="M18 9.758a.706.706 0 00-.703.708c0 .391.315.708.703.708s.703-.317.703-.708A.706.706 0 0018 9.758z"/><path d="M33.89 14.007h-2.735C29.712 9.859 27.62 2.587 23.829.53c-1.896-1.028-3.688-.31-4.362 1.148A1.59 1.59 0 0118 2.625a1.59 1.59 0 01-1.467-.946C15.883.27 14.133-.514 12.304.38 8.453 2.264 6.3 9.828 4.845 14.007H2.11c-1.166 0-2.11.95-2.11 2.123a2.12 2.12 0 002.11 2.124h31.78c1.166 0 2.11-.95 2.11-2.124a2.12 2.12 0 00-2.11-2.124zM7.316 11.174h7.872a.706.706 0 00.704-.708.706.706 0 00-.704-.708h-7.38c2.12-5.896 4.1-7.609 5.111-8.104 1.104-.54 2.013-.088 2.34.622A2.996 2.996 0 0018 4.041a2.996 2.996 0 002.742-1.765c.337-.73 1.25-1.134 2.42-.5 1.016.552 2.99 2.322 5.03 7.982h-7.38c-.388 0-.703.317-.703.708s.315.708.703.708h7.873c.355 1.033.725 2.098.98 2.833H6.335c.255-.733.623-1.796.98-2.833zm26.576 5.665H2.109a.706.706 0 01-.703-.708c0-.391.315-.708.703-.708h31.782c.387 0 .703.317.703.708 0 .39-.315.708-.703.708zm-17.298 4.248H5.344a.705.705 0 00-.703.708v2.832C4.64 28.141 7.479 31 10.969 31a6.316 6.316 0 005.915-4.105 2.681 2.681 0 012.233 0A6.315 6.315 0 0025.03 31c3.49 0 6.328-2.859 6.328-6.373v-2.832a.706.706 0 00-.703-.708h-11.25a.706.706 0 00-.703.708v.708h-1.406v-.708a.705.705 0 00-.703-.708zm-5.625 8.497c-2.714 0-4.922-2.224-4.922-4.957v-2.124h9.844v2.124c0 2.74-2.196 4.957-4.922 4.957zm9.14-7.08h9.844v2.123c0 2.733-2.208 4.957-4.922 4.957-2.732 0-4.922-2.223-4.922-4.957zm-1.406 1.415v.708c0 .227.013.452.036.676a4.08 4.08 0 00-1.478 0c.023-.224.036-.45.036-.676v-.708z"/><path d="M10.969 26.752a2.12 2.12 0 01-2.11-2.125c0-.39-.314-.708-.703-.708s-.703.317-.703.708c0 1.952 1.577 3.54 3.516 3.54a.706.706 0 00.703-.707.706.706 0 00-.703-.708zm14.062 1.416c1.939 0 3.516-1.589 3.516-3.54a.706.706 0 00-.703-.709.706.706 0 00-.703.708 2.12 2.12 0 01-2.11 2.125.706.706 0 00-.703.708c0 .39.315.708.703.708z"/></g></symbol><symbol id="icon-facebook"><path clip-rule="evenodd" d="M27 13.5C27 6.045 20.956 0 13.5 0S0 6.045 0 13.5C0 20.956 6.044 27 13.5 27S27 20.956 27 13.5zM16.884 9.294h-1.74c-.469 0-.798.397-.798.891v.775h2.485l-.402 2.517h-2.083v6.747h-2.543v-6.747h-1.688V10.96h1.688V9.677h.005c.044-1.463.552-2.856 3.03-2.944v-.01h2.046z" fill="#cdcdcd" fill-rule="evenodd"/></symbol><symbol id="icon-odnoklassniki"><g fill="#cdcdcd"><path d="M13.851 10.957c1.016 0 1.806-.836 1.787-1.746.019-.91-.752-1.764-1.768-1.764-.978 0-1.787.78-1.787 1.746 0 .965.79 1.764 1.768 1.764z"/><path d="M13.701 0C6.441 0 .535 5.831.535 13c0 7.187 5.906 13 13.166 13 7.279 0 13.166-5.832 13.166-13C26.886 5.83 20.98 0 13.7 0zm.188 4.921c2.37 0 4.326 1.932 4.307 4.29 0 2.377-1.975 4.29-4.382 4.253-2.37-.037-4.27-1.95-4.27-4.271 0-2.359 1.938-4.272 4.345-4.272zm4.834 10.029c0 .037-.019.056-.019.093a1.213 1.213 0 01-.564.873c-.207.13-.433.26-.659.371a8.55 8.55 0 01-1.786.65c-.075.019-.075.019-.02.074l1.035 1.022 1.317 1.3c.62.613.451 1.634-.339 2.006-.131.074-.282.092-.432.13h-.245c-.019 0-.037 0-.037-.02-.301-.036-.546-.185-.771-.39l-2.276-2.246c-.057-.056-.057-.056-.113 0l-2.295 2.266c-.131.13-.263.222-.432.297-.113.055-.245.074-.358.092h-.244c-.038 0-.057-.018-.094-.018-.508-.093-.847-.371-.997-.854-.15-.483-.038-.91.32-1.263l.94-.929 1.392-1.374c.056-.056.056-.056-.019-.074-.019 0-.056-.019-.075-.019a8.182 8.182 0 01-2.351-.984c-.433-.279-.64-.687-.583-1.189.094-.928 1.147-1.43 1.937-.928.15.093.282.167.451.241a5.413 5.413 0 002.746.557c.47-.018.94-.111 1.411-.26.451-.148.846-.353 1.26-.575.677-.39 1.561-.075 1.824.65.038.11.057.204.076.315z"/></g></symbol><symbol id="icon-price"><g fill="#00b2ff"><path d="M11.07 8.585a.686.686 0 00-.966 0 .69.69 0 00-.2.483.685.685 0 001.367 0 .689.689 0 00-.2-.483z"/><path d="M34.8 2.859l-.845-.847.845-.845A.684.684 0 0033.833.2l-.845.845-.832-.834a.683.683 0 00-.484-.2L20.102.003H20.1c-.913 0-1.772.356-2.418 1.002L11.908 6.78a.684.684 0 00.967.967l5.774-5.774A2.04 2.04 0 0120.1 1.37h.002l11.286.007.634.634-2.537 2.537a2.805 2.805 0 00-3.419.422c-.529.529-.82 1.232-.82 1.98s.291 1.452.82 1.98a2.792 2.792 0 001.98.82c.717 0 1.434-.273 1.98-.82a2.806 2.806 0 00.425-3.415l2.537-2.537.645.646-.007 11.273a2.04 2.04 0 01-.601 1.451L16.344 33.033a2.04 2.04 0 01-1.452.601 2.04 2.04 0 01-1.452-.601L1.97 21.559c-.388-.387-.602-.903-.602-1.452s.214-1.064.602-1.452l7.368-7.37a.684.684 0 00-.966-.966L1 17.689c-.643.644-1 1.504-1 2.417s.356 1.773 1.002 2.42L12.473 34a3.41 3.41 0 002.419 1 3.41 3.41 0 002.419-1l16.68-16.684a3.4 3.4 0 001.003-2.417L35 3.342a.683.683 0 00-.2-.483zm-5.74 5.106c-.271.27-.631.42-1.014.42s-.742-.15-1.013-.42a1.435 1.435 0 011.013-2.447c.138 0 .277.02.41.06l-.789.789a.684.684 0 00.967.967l.787-.787a1.434 1.434 0 01-.361 1.418z"/><path d="M29.2 13.764l-7.966-7.967a2.71 2.71 0 00-3.828 0L4.8 18.406c-.511.51-.793 1.19-.793 1.914s.282 1.403.793 1.914l7.967 7.968c.511.51 1.19.793 1.914.793a2.69 2.69 0 001.913-.793L29.2 17.592a2.69 2.69 0 00.793-1.913 2.69 2.69 0 00-.793-1.914zm-.966 2.862L15.627 29.235a1.33 1.33 0 01-.947.392 1.33 1.33 0 01-.947-.392l-7.967-7.968a1.33 1.33 0 01-.392-.947c0-.358.139-.695.392-.948L18.373 6.764c.261-.262.604-.392.947-.392s.686.13.947.392l7.967 7.967c.253.253.392.59.392.948s-.14.694-.392.947z"/><path d="M22.29 13.677a.684.684 0 00-.966-.967l-.394.394c-1.051-.65-2.4-.562-3.252.29a2.48 2.48 0 00-.716 1.9c.034.704.337 1.376.853 1.892.55.55.611 1.384.137 1.859-.475.474-1.308.413-1.858-.137s-.612-1.384-.137-1.859a.684.684 0 00-.967-.967c-.853.853-.94 2.202-.29 3.253l-.468.467a.684.684 0 00.968.967l.467-.467c.46.283.975.427 1.482.427.652 0 1.29-.238 1.77-.718 1.007-1.007.946-2.708-.137-3.791a1.512 1.512 0 01-.454-.991 1.13 1.13 0 01.317-.868c.474-.475 1.308-.413 1.858.137s.611 1.384.137 1.858a.684.684 0 00.966.967c.853-.852.94-2.201.29-3.252zm-6.918 11.335L11.86 21.5a.684.684 0 00-.967.967l3.511 3.512a.682.682 0 00.967 0 .684.684 0 000-.967zm-5.384-5.385a.688.688 0 00-.483-.2.69.69 0 00-.483.2.69.69 0 00-.2.484.684.684 0 00.683.683.688.688 0 00.684-.683.689.689 0 00-.2-.484z"/></g></symbol><symbol id="icon-suppliers"><g fill="#00b2ff"><path d="M31.264 27.893a3.132 3.132 0 00.597-1.842v-4.108a.684.684 0 00-.684-.683h-3.055a2.564 2.564 0 00-2.561 2.561v2.23c0 .687.222 1.323.596 1.841a4.402 4.402 0 00-1.336.445 5.817 5.817 0 00-4.294-2.56l-.021-.005a4.02 4.02 0 001.03-2.69V17.5a.684.684 0 00-.684-.684H16.7a3.24 3.24 0 00-3.236 3.236v3.03a4.02 4.02 0 001.03 2.69l-.021.005a5.816 5.816 0 00-4.294 2.56c-.42-.22-.87-.369-1.337-.445a3.132 3.132 0 00.597-1.84v-4.109a.684.684 0 00-.684-.683H5.7a2.564 2.564 0 00-2.56 2.561v2.23c0 .688.221 1.324.596 1.842A4.464 4.464 0 000 32.291v2.025c0 .378.306.684.684.684h33.632a.684.684 0 00.684-.684v-2.025a4.464 4.464 0 00-3.736-4.398zM4.506 23.821c0-.658.536-1.194 1.194-1.194h2.372v.833a.74.74 0 01-.74.74H4.506zm0 1.746h2.826c.26 0 .51-.048.74-.135v.62c0 .982-.8 1.782-1.783 1.782-.983 0-1.783-.8-1.783-1.783zm2.224 3.634l-.44.44-.442-.44zm2.468 2.363v2.069h-7.83V32.29a3.095 3.095 0 012.588-3.049l1.85 1.85a.684.684 0 00.966 0l1.85-1.85c.327.053.642.158.934.312a5.784 5.784 0 00-.358 2.01zm8.302-5.813a2.672 2.672 0 01-2.668-2.668v-.904h4.085c.453 0 .88-.115 1.252-.319v1.223a2.672 2.672 0 01-2.669 2.669zm1.192 1.368L17.5 28.31l-1.192-1.191zm-3.86-7.067a1.87 1.87 0 011.868-1.868h3.469v1.377c0 .69-.562 1.251-1.252 1.251H14.83zm9.603 13.58h-13.87v-1.366h4.451a.684.684 0 100-1.368h-4.4a4.455 4.455 0 013.8-3.738l2.6 2.6a.682.682 0 00.967 0l2.601-2.6a4.451 4.451 0 013.85 4.404zm2.493-9.81c0-.66.536-1.195 1.194-1.195h2.372v.833a.74.74 0 01-.74.74h-2.826zm0 1.745h2.826c.26 0 .51-.048.74-.135v.62c0 .982-.8 1.782-1.783 1.782-.983 0-1.783-.8-1.783-1.783zm2.224 3.634l-.441.44-.44-.44zm-3.35 4.432v-2.069c0-.706-.127-1.383-.358-2.01.292-.154.606-.26.933-.312l1.85 1.85a.684.684 0 00.967 0l1.85-1.85a3.095 3.095 0 012.589 3.05v1.34zM20.869 4.466a.684.684 0 00-.967 0l-3.354 3.355-1.45-1.45a.684.684 0 10-.967.967l1.933 1.933a.684.684 0 00.967 0l3.838-3.838a.684.684 0 000-.967z"/><path d="M20.295.593a.684.684 0 00-.557 1.248 5.51 5.51 0 013.264 5.028A5.508 5.508 0 0117.5 12.37a5.508 5.508 0 01-5.501-5.501 5.515 5.515 0 013.24-5.017.683.683 0 10-.563-1.246 6.885 6.885 0 00-4.045 6.263 6.877 6.877 0 006.869 6.868 6.876 6.876 0 006.869-6.868A6.88 6.88 0 0020.295.593z"/><path d="M17.524 0H17.5a.684.684 0 000 1.367h.021A.684.684 0 0017.524 0zm.459 31.099c-.127-.127-.303-.2-.483-.2s-.356.073-.483.2-.2.303-.2.483a.688.688 0 00.683.684.688.688 0 00.684-.684.689.689 0 00-.2-.483z"/></g></symbol><symbol id="icon-time"><g fill="#00b2ff"><path d="M3.188 11.662L1.702 10.19a2.038 2.038 0 010-2.9c.807-.8 2.122-.8 2.929 0l1.587 1.572a14.58 14.58 0 015.52-2.311V4.51h-1.38a.687.687 0 01-.691-.683V2.051C9.667.92 10.596 0 11.738 0h5.524c1.142 0 2.071.92 2.071 2.05v1.778a.687.687 0 01-.69.684h-1.381V6.55a14.578 14.578 0 015.52 2.31l1.587-1.57c.807-.8 2.121-.8 2.93 0a2.04 2.04 0 010 2.9l-1.487 1.471A14.252 14.252 0 0129 20.644C29 28.56 22.495 35 14.5 35S0 28.56 0 20.645c0-3.277 1.128-6.442 3.188-8.983zm.467-3.405a.696.696 0 00-.977 0 .68.68 0 000 .967l1.427 1.412c.322-.327.659-.638 1.01-.934zm14.297-6.206a.688.688 0 00-.69-.684h-5.524c-.38 0-.69.307-.69.684v1.094h6.904zM13.12 4.51v1.843a15.006 15.006 0 012.762 0V4.512zm13.203 3.746a.696.696 0 00-.977 0l-1.46 1.445c.351.296.688.607 1.01.934l1.427-1.412a.68.68 0 000-.967zM14.5 33.633c7.234 0 13.119-5.827 13.119-12.989 0-3.159-1.158-6.202-3.262-8.57A13.177 13.177 0 0014.5 7.656a13.18 13.18 0 00-7.936 2.645 13.19 13.19 0 00-1.921 1.771 12.898 12.898 0 00-3.262 8.572c0 7.161 5.885 12.988 13.119 12.988z"/><path d="M14.5 22.695a2.063 2.063 0 01-2.071-2.05c0-.891.577-1.651 1.38-1.934V13.81c0-.378.31-.684.691-.684s.69.306.69.684v4.902a2.056 2.056 0 011.382 1.934c0 1.13-.93 2.05-2.072 2.05zm0-2.734c-.38 0-.69.307-.69.684 0 .377.31.683.69.683s.69-.306.69-.684a.688.688 0 00-.69-.683z"/><path d="M7.145 13.433a.54.54 0 01.033-.037l.04-.037a10.417 10.417 0 014.353-2.55.682.682 0 11.391 1.311 9.028 9.028 0 00-3.298 1.78l.466.46c.27.268.27.7 0 .968a.692.692 0 01-.977 0l-.467-.462A8.758 8.758 0 005.55 19.96h.664c.382 0 .69.306.69.684a.686.686 0 01-.69.683H5.55a8.757 8.757 0 002.136 5.095l.467-.462a.696.696 0 01.977 0c.27.267.27.7 0 .967l-.467.462a8.941 8.941 0 005.147 2.115v-.657c0-.378.309-.684.69-.684.381 0 .69.306.69.684v.657a8.939 8.939 0 005.147-2.115l-.467-.462a.679.679 0 010-.967.696.696 0 01.977 0l.467.462a8.758 8.758 0 002.136-5.095h-.664c-.382 0-.69-.306-.69-.684s.308-.683.69-.683h.664a8.758 8.758 0 00-2.136-5.095l-.467.462a.692.692 0 01-.977 0 .68.68 0 010-.967l.466-.461a9.024 9.024 0 00-3.298-1.78.684.684 0 11.391-1.312 10.414 10.414 0 014.351 2.55.672.672 0 01.042.037l.033.037a10.132 10.132 0 013.002 7.213c0 2.718-1.066 5.277-3.001 7.211a.555.555 0 01-.034.037.38.38 0 01-.037.033 10.34 10.34 0 01-7.285 2.972c-2.746 0-5.33-1.055-7.284-2.971l-.038-.034c-.012-.011-.022-.024-.033-.036a10.132 10.132 0 01-3.002-7.212 10.13 10.13 0 013.002-7.212z"/><path d="M14.5 11.758c-.381 0-.69-.306-.69-.684s.309-.683.69-.683c.381 0 .69.306.69.683s-.309.684-.69.684z"/></g></symbol><symbol id="icon-vector"><path d="M1 8.5l4-4-4-4" stroke="#fff" stroke-linejoin="round"/></symbol><symbol id="icon-vkontakte"><path d="M19.475 15.127c-1.109-1.024-1.188-1.024-.238-2.206 1.188-1.497 2.773-3.388 1.347-3.388H17.97c-.475 0-.554.316-.713.71-.633 1.496-1.9 3.466-2.376 3.15-.475-.314-.237-1.496-.237-3.387a.61.61 0 00-.159-.63c-.158-.158-.396-.315-.633-.315-.396-.079-.792-.158-1.188-.158-1.505 0-2.535.63-1.98.71 1.03.157.95 2.363.712 3.308-.396 1.655-1.98-1.26-2.693-2.757-.079-.394-.396-.63-.792-.63H5.852c-.317 0-.554.078-.554.315 0 .394 1.98 4.254 3.801 6.224 1.822 1.89 3.644 1.733 4.911 1.733.158 0 .317-.08.396-.158s.158-.236.158-.394c0-1.26.476-1.89 1.347-1.024.95.945 1.188 1.576 2.376 1.576h2.138c.555 0 .713-.158.713-.394.08-.552-.871-1.576-1.663-2.285zM13.852.001c7.366.157 13.227 6.066 13.147 13.235-.079 7.17-6.178 12.842-13.543 12.763C6.01 25.92.07 20.17.07 13 .15 5.753 6.327-.077 13.852.002z" fill="#cdcdcd"/></symbol><symbol id="logo-service-device" viewBox="0 0 216 52"><path d="m76.9355 24.3369c0-.7243-.1871-1.2695-.5615-1.6357-.3662-.3744-1.0376-.7609-2.0141-1.1597-1.7823-.6755-3.064-1.4648-3.8453-2.3682-.7812-.9114-1.1718-1.9856-1.1718-3.2226 0-1.4974.5289-2.6978 1.5869-3.6011 1.0661-.9114 2.417-1.3672 4.0527-1.3672 1.0905 0 2.063.232 2.9175.6958.8545.4558 1.5096 1.1027 1.9653 1.9409.4639.8383.6958 1.7904.6958 2.8565h-3.5766c0-.8301-.1791-1.4608-.5371-1.8921-.35-.4395-.8586-.6592-1.5259-.6592-.6266 0-1.1149.1872-1.4649.5615-.3499.3663-.5249.8627-.5249 1.4893 0 .4883.1954.9318.586 1.3306.3906.3906 1.0823.7975 2.0752 1.2207 1.7334.6266 2.9907 1.3956 3.7719 2.3071.7894.9115 1.1841 2.0711 1.1841 3.479 0 1.5462-.4923 2.7547-1.477 3.6255s-2.3234 1.3061-4.0161 1.3061c-1.1475 0-2.1932-.236-3.1372-.708-.9441-.472-1.6846-1.1474-2.2217-2.0263-.529-.8789-.7935-1.9165-.7935-3.1128h3.6011c0 1.0254.1994 1.77.5981 2.2339.3988.4638 1.0498.6958 1.9532.6958 1.2532 0 1.8798-.6633 1.8798-1.9898zm11.1573 4.9072c-1.7741 0-3.1576-.5289-4.1504-1.5869-.9929-1.0579-1.4893-2.5716-1.4893-4.541v-1.0498c0-2.0833.4558-3.6906 1.3672-4.8218.9115-1.1312 2.2176-1.6967 3.9185-1.6967 1.6601 0 2.9093.533 3.7475 1.5991.8382 1.0579 1.2655 2.6286 1.2818 4.7119v1.6968h-6.8726c.0488.9765.2645 1.6927.647 2.1484.3825.4476.9725.6714 1.77.6714 1.1556 0 2.12-.3947 2.8931-1.1841l1.3549 2.0874c-.4231.5859-1.0376 1.062-1.8432 1.4282-.8057.3581-1.6805.5371-2.6245.5371zm-2.1729-8.1054h3.4546v-.3174c-.0163-.7894-.1465-1.3875-.3906-1.7944-.2442-.4069-.6673-.6104-1.2695-.6104-.6023 0-1.0417.2157-1.3184.647-.2686.4313-.4272 1.123-.4761 2.0752zm15.3201-2.0142-1.148-.0976c-.9437 0-1.5826.415-1.9162 1.2451v8.728h-3.4668v-13.208h3.2593l.0976 1.4282c.5453-1.1149 1.298-1.6723 2.2581-1.6723.391 0 .708.0528.952.1586zm6.335 4.9927 1.673-8.3252h3.601l-3.626 13.208h-3.296l-3.637-13.208h3.613zm10.523 4.8828h-3.467v-13.208h3.467zm-3.626-16.626c0-.5371.171-.9765.513-1.3183s.797-.5127 1.367-.5127 1.025.1709 1.367.5127.513.7812.513 1.3183c0 .529-.171.9684-.513 1.3184-.333.3499-.789.5249-1.367.5249s-1.038-.175-1.379-.5249c-.334-.35-.501-.7894-.501-1.3184zm11.072 14.0015c1.001 0 1.51-.6511 1.526-1.9531h3.247c-.016 1.4404-.46 2.6041-1.331 3.4912-.87.887-1.993 1.3305-3.369 1.3305-1.701 0-2.999-.5289-3.894-1.5869-.895-1.0579-1.351-2.6163-1.367-4.6753v-1.0498c0-2.0752.439-3.658 1.318-4.7485.887-1.0905 2.194-1.6357 3.919-1.6357 1.456 0 2.604.4516 3.442 1.3549.838.8952 1.266 2.1688 1.282 3.8208h-3.247c-.008-.7405-.13-1.3102-.366-1.709-.236-.3987-.627-.5981-1.172-.5981-.602 0-1.034.2157-1.294.647-.261.4232-.399 1.2492-.415 2.478v1.3428c0 1.0742.053 1.827.158 2.2583.106.4232.281.7365.525.9399.244.1953.59.293 1.038.293zm12.06 2.8686c-1.774 0-3.157-.5289-4.15-1.5869-.993-1.0579-1.489-2.5716-1.489-4.541v-1.0498c0-2.0833.456-3.6906 1.367-4.8218s2.218-1.6967 3.918-1.6967c1.661 0 2.91.533 3.748 1.5991.838 1.0579 1.266 2.6286 1.282 4.7119v1.6968h-6.873c.049.9765.265 1.6927.647 2.1484.383.4476.973.6714 1.77.6714 1.156 0 2.12-.3947 2.893-1.1841l1.355 2.0874c-.423.5859-1.037 1.062-1.843 1.4282-.806.3581-1.68.5371-2.625.5371zm-2.172-8.1054h3.454v-.3174c-.016-.7894-.146-1.3875-.39-1.7944-.245-.4069-.668-.6104-1.27-.6104s-1.042.2157-1.318.647c-.269.4313-.428 1.123-.476 2.0752zm14.734 7.8613v-17.7734h4.699c2.075 0 3.727.6591 4.956 1.9775 1.237 1.3184 1.868 3.125 1.892 5.4199v2.8809c0 2.3356-.618 4.1707-1.855 5.5054-1.229 1.3265-2.926 1.9897-5.09 1.9897zm3.588-14.7827v11.8042h1.075c1.196 0 2.038-.3133 2.526-.94.489-.6347.745-1.7252.77-3.2714v-3.0884c0-1.6602-.232-2.8158-.696-3.4668-.464-.6592-1.254-1.0051-2.368-1.0376zm15.711 15.0268c-1.774 0-3.158-.5289-4.151-1.5869-.992-1.0579-1.489-2.5716-1.489-4.541v-1.0498c0-2.0833.456-3.6906 1.367-4.8218.912-1.1312 2.218-1.6967 3.919-1.6967 1.66 0 2.909.533 3.747 1.5991.839 1.0579 1.266 2.6286 1.282 4.7119v1.6968h-6.872c.048.9765.264 1.6927.647 2.1484.382.4476.972.6714 1.77.6714 1.155 0 2.12-.3947 2.893-1.1841l1.355 2.0874c-.424.5859-1.038 1.062-1.844 1.4282-.805.3581-1.68.5371-2.624.5371zm-2.173-8.1054h3.455v-.3174c-.017-.7894-.147-1.3875-.391-1.7944s-.667-.6104-1.27-.6104c-.602 0-1.041.2157-1.318.647-.268.4313-.427 1.123-.476 2.0752zm12.964 2.9785 1.672-8.3252h3.601l-3.625 13.208h-3.296l-3.638-13.208h3.613zm10.522 4.8828h-3.466v-13.208h3.466zm-3.625-16.626c0-.5371.171-.9765.513-1.3183.341-.3418.797-.5127 1.367-.5127.569 0 1.025.1709 1.367.5127s.513.7812.513 1.3183c0 .529-.171.9684-.513 1.3184-.334.3499-.789.5249-1.367.5249s-1.038-.175-1.38-.5249c-.333-.35-.5-.7894-.5-1.3184zm11.072 14.0015c1.001 0 1.509-.6511 1.525-1.9531h3.248c-.017 1.4404-.46 2.6041-1.331 3.4912-.871.887-1.994 1.3305-3.369 1.3305-1.701 0-2.999-.5289-3.894-1.5869-.895-1.0579-1.351-2.6163-1.367-4.6753v-1.0498c0-2.0752.439-3.658 1.318-4.7485.887-1.0905 2.193-1.6357 3.918-1.6357 1.457 0 2.605.4516 3.443 1.3549.838.8952 1.265 2.1688 1.282 3.8208h-3.248c-.008-.7405-.13-1.3102-.366-1.709-.236-.3987-.626-.5981-1.172-.5981-.602 0-1.033.2157-1.294.647-.26.4232-.398 1.2492-.415 2.478v1.3428c0 1.0742.053 1.827.159 2.2583.106.4232.281.7365.525.9399.244.1953.59.293 1.038.293zm12.06 2.8686c-1.774 0-3.157-.5289-4.15-1.5869-.993-1.0579-1.489-2.5716-1.489-4.541v-1.0498c0-2.0833.455-3.6906 1.367-4.8218.911-1.1312 2.217-1.6967 3.918-1.6967 1.66 0 2.909.533 3.748 1.5991.838 1.0579 1.265 2.6286 1.281 4.7119v1.6968h-6.872c.049.9765.264 1.6927.647 2.1484.382.4476.972.6714 1.77.6714 1.155 0 2.12-.3947 2.893-1.1841l1.355 2.0874c-.423.5859-1.038 1.062-1.843 1.4282-.806.3581-1.681.5371-2.625.5371zm-2.173-8.1054h3.455v-.3174c-.016-.7894-.147-1.3875-.391-1.7944s-.667-.6104-1.269-.6104-1.042.2157-1.319.647c-.268.4313-.427 1.123-.476 2.0752z" fill="#203c42"/><path d="m70.9473 44.9609 1.289-4.3007h1.5176l-2.5195 7.3007c-.3867 1.0664-1.043 1.5996-1.9688 1.5996-.207 0-.4355-.0351-.6855-.1054v-1.1016l.2695.0176c.3594 0 .6289-.0664.8086-.1992.1836-.1289.3281-.3477.4336-.6563l.2051-.5449-2.2266-6.3105h1.5352zm7.3945.2871 1.875-4.5878h1.7812v6.3398h-1.4238v-4.1953l-1.7461 4.1953h-.9668l-1.7519-4.2188v4.2188h-1.4239v-6.3398h1.793zm10.6289 1.752h-1.4238v-2.5605h-2.4668v2.5605h-1.4239v-6.3398h1.4239v2.6425h2.4668v-2.6425h1.4238zm3.0527-4.3242h1.3946c.5195 0 .9726.0898 1.3593.2695.3868.1797.6797.4317.8789.7559.2032.3242.3047.7011.3047 1.1308 0 .6524-.2304 1.1758-.6914 1.5703-.4609.3946-1.0742.5938-1.8398.5977h-2.8301v-6.3398h1.4238zm6.4161 4.3242h-1.4239v-6.3398h1.4239zm-6.4161-3.1816v2.0449h1.3887c.3477 0 .6211-.086.8203-.2578.2031-.1758.3047-.4239.3047-.7442s-.0996-.5722-.2988-.7558c-.1953-.1875-.461-.2832-.7969-.2871zm10.9156 3.2988c-.902 0-1.634-.2832-2.197-.8496-.558-.5703-.8377-1.3281-.8377-2.2735v-.1757c0-.6329.1207-1.1973.3637-1.6934.246-.5.589-.8887 1.031-1.166.441-.2774.933-.416 1.476-.416.864 0 1.53.2754 1.998.8261.473.5508.709 1.3301.709 2.3379v.5742h-4.142c.043.5235.217.9376.521 1.2422.309.3047.696.4571 1.16.4571.653 0 1.184-.2637 1.594-.791l.768.7324c-.254.3789-.594.6738-1.02.8847-.422.2071-.896.3106-1.424.3106zm-.169-5.4317c-.391 0-.708.1368-.95.4102-.238.2734-.39.6543-.457 1.1426h2.713v-.1055c-.031-.4766-.158-.8359-.381-1.0781-.222-.2461-.531-.3692-.925-.3692zm11.8.1055h-2.056v5.209h-1.424v-5.209h-2.033v-1.1308h5.513zm3.369 5.3262c-.902 0-1.634-.2832-2.197-.8496-.558-.5703-.838-1.3281-.838-2.2735v-.1757c0-.6329.121-1.1973.364-1.6934.246-.5.589-.8887 1.031-1.166.441-.2774.933-.416 1.476-.416.864 0 1.53.2754 1.998.8261.473.5508.709 1.3301.709 2.3379v.5742h-4.142c.043.5235.217.9376.521 1.2422.309.3047.696.4571 1.16.4571.653 0 1.184-.2637 1.594-.791l.768.7324c-.254.3789-.594.6738-1.02.8847-.422.2071-.896.3106-1.424.3106zm-.169-5.4317c-.391 0-.708.1368-.95.4102-.238.2734-.39.6543-.457 1.1426h2.713v-.1055c-.031-.4766-.158-.8359-.381-1.0781-.222-.2461-.531-.3692-.925-.3692zm6.099 1.0606 1.207-2.0859h1.582l-1.939 3.123 2.004 3.2168h-1.571l-1.265-2.168-1.26 2.168h-1.582l2.004-3.2168-1.934-3.123h1.571zm9.129 4.2539h-1.424v-2.5605h-2.467v2.5605h-1.423v-6.3398h1.423v2.6425h2.467v-2.6425h1.424zm1.254-3.2285c0-.6211.123-1.1797.369-1.6758.246-.5.592-.8828 1.037-1.1484.446-.2696.957-.4043 1.535-.4043.856 0 1.549.2754 2.08.8261.536.5508.825 1.2813.868 2.1914l.005.334c0 .625-.121 1.1836-.363 1.6758-.238.4922-.582.8731-1.031 1.1426-.445.2695-.961.4043-1.547.4043-.894 0-1.611-.2969-2.15-.8906-.535-.5977-.803-1.3926-.803-2.3848zm1.424.123c0 .6524.135 1.1641.404 1.5352.27.3672.645.5508 1.125.5508.481 0 .854-.1875 1.119-.5625.27-.375.405-.9239.405-1.6465 0-.6406-.139-1.1485-.417-1.5235-.273-.375-.646-.5625-1.119-.5625-.464 0-.834.1856-1.107.5567-.274.3672-.41.918-.41 1.6523zm10.969-3.2343v6.3398h-1.424v-5.1914h-1.793l-.117 2.209c-.075 1.0625-.28 1.8262-.616 2.291-.332.4609-.841.6914-1.529.6914h-.439l-.006-1.1836.293-.0293c.312-.043.539-.2324.679-.5683.145-.3399.237-.9571.276-1.8516l.117-2.707zm1.248 3.1113c0-.6211.123-1.1797.369-1.6758.246-.5.592-.8828 1.037-1.1484.445-.2696.957-.4043 1.535-.4043.855 0 1.549.2754 2.08.8261.535.5508.824 1.2813.867 2.1914l.006.334c0 .625-.121 1.1836-.363 1.6758-.238.4922-.582.8731-1.031 1.1426-.446.2695-.961.4043-1.547.4043-.895 0-1.612-.2969-2.151-.8906-.535-.5977-.802-1.3926-.802-2.3848zm1.423.123c0 .6524.135 1.1641.405 1.5352.269.3672.644.5508 1.125.5508.48 0 .853-.1875 1.119-.5625.269-.375.404-.9239.404-1.6465 0-.6406-.139-1.1485-.416-1.5235-.273-.375-.646-.5625-1.119-.5625-.465 0-.834.1856-1.107.5567-.274.3672-.411.918-.411 1.6523zm9.897-2.0859h-2.754v5.1914h-1.418v-6.3398h4.172zm4.764-1.1484h1.418v6.3398h-1.418v-4.2305l-2.485 4.2305h-1.418v-6.3398h1.418v4.2304zm6.89 0h1.418v6.3398h-1.418v-4.2305l-2.484 4.2305h-1.418v-6.3398h1.418v4.2304z" fill="#788891"/><g fill="#00b2ff"><path d="m32.0668 13.8665c1.1284 0 2.0817.7271 2.4405 1.7333h8.9856c.3588-1.0062 1.3121-1.7333 2.4405-1.7333 1.4335 0 2.6 1.1665 2.6 2.5999 0 1.4335-1.1665 2.6-2.6 2.6-1.1284 0-2.0817-.7272-2.4405-1.7333h-8.9865c-.3588 1.0061-1.3121 1.7333-2.4405 1.7333-1.4335 0-2.6-1.1665-2.6-2.6 0-1.4334 1.1674-2.5999 2.6009-2.5999zm13.8666 3.4666c.4776 0 .8667-.3883.8667-.8667s-.3891-.8666-.8667-.8666c-.4775 0-.8666.3882-.8666.8666s.3891.8667.8666.8667zm-13.8666 0c.4775 0 .8666-.3883.8666-.8667s-.3891-.8666-.8666-.8666c-.4776 0-.8667.3882-.8667.8666s.3891.8667.8667.8667z"/><path d="m25.1333 19.2259v-5.3594c0-.2305.091-.4507.2539-.6127l3.4667-3.46664c.162-.16293.383-.25393.6127-.25393h2.7595c.3588-1.00618 1.3121-1.7333 2.4405-1.7333 1.4335 0 2.6 1.16651 2.6 2.59997 0 1.4334-1.1665 2.5999-2.6 2.5999-1.1284 0-2.0817-.7271-2.4405-1.7333h-2.4007l-2.9588 2.9588v5.0006c1.0062.3588 1.7333 1.3121 1.7333 2.4405 0 1.4334-1.1665 2.5999-2.6 2.5999-1.4334 0-2.6-1.1665-2.6-2.5999 0-1.1284.7272-2.0817 1.7334-2.4405zm9.5333-7.9594c.4775 0 .8667-.3882.8667-.8666 0-.47841-.3892-.86667-.8667-.86667s-.8667.38826-.8667.86667c0 .4784.3892.8666.8667.8666zm-8.6667 11.2665c.4776 0 .8667-.3882.8667-.8666s-.3891-.8667-.8667-.8667c-.4775 0-.8666.3883-.8666.8667s.3891.8666.8666.8666z"/><path d="m9.53333 22.533c.4004 0 .77477.0979 1.11367.2608l1.4863-1.4863v-8.3077c0-.2305.091-.4507.254-.6127l8.6736-8.6735c-.163-.33886-.2609-.71325-.2609-1.11364 0-1.43345 1.1665-2.59996 2.6-2.59996s2.6 1.16651 2.6 2.59996c0 1.43344-1.1665 2.59995-2.6 2.59995-.4004 0-.7748-.09793-1.1137-.26086l-8.4196 8.41955v8.3077c0 .2305-.091.4507-.254.6127l-1.7402 1.7403c.1629.3388.2608.7132.2608 1.1136 0 1.4335-1.1665 2.6-2.59997 2.6s-2.6-1.1665-2.6-2.6c0-1.4334 1.16653-2.5999 2.6-2.5999zm13.86667-19.06639c.4775 0 .8667-.38826.8667-.86665 0-.4784-.3892-.86666-.8667-.86666s-.8667.38826-.8667.86666c0 .47839.3892.86665.8667.86665zm-13.86667 22.53299c.47757 0 .86667-.3883.86667-.8667s-.3891-.8666-.86667-.8666c-.47753 0-.86666.3882-.86666.8666s.38913.8667.86666.8667z"/><path d="m1.73328 12.2926v-3.62608c0-.23053.091-.45066.25394-.61272l6.06666-6.06657c.16207-.16293.38307-.25393.61274-.25393h4.49278c.3588-1.006179 1.3122-1.7333 2.4406-1.7333 1.4334 0 2.6 1.16651 2.6 2.59996 0 1.43344-1.1666 2.59995-2.6 2.59995-1.1284 0-2.0818-.72712-2.4406-1.7333h-4.13398l-5.5588 5.55871v3.26728c1.0062.3588 1.73333 1.3121 1.73333 2.4405 0 1.4334-1.16653 2.5999-2.6 2.5999s-2.59999959-1.1665-2.59999959-2.5999c0-1.1284.72713459-2.0817 1.73332959-2.4405zm13.86672-8.82599c.4775 0 .8666-.38826.8666-.86665 0-.4784-.3891-.86666-.8666-.86666-.4776 0-.8667.38826-.8667.86666 0 .47839.3891.86665.8667.86665zm-13.00005 12.13309c.47753 0 .86667-.3882.86667-.8666s-.38914-.8667-.86667-.8667-.86667.3883-.86667.8667.38914.8666.86667.8666z"/><path d="m13.8658 46.9595v-12.4529c-1.0054-.3588-1.7325-1.3121-1.7325-2.4405 0-1.4334 1.1665-2.6 2.6-2.6 1.1284 0 2.0817.7272 2.4405 1.7334h8.9856c.3588-1.0062 1.3122-1.7334 2.4406-1.7334s2.0817.7272 2.4405 1.7334h5.0007l3.2196-3.2197c-.1629-.3388-.2608-.7132-.2608-1.1136 0-1.4335 1.1665-2.6 2.6-2.6 1.4334 0 2.6 1.1665 2.6 2.6 0 1.4334-1.1666 2.5999-2.6 2.5999-.4004 0-.7748-.0979-1.1137-.2608l-3.4736 3.4735c-.1621.163-.3831.254-.6127.254h-5.3595c-.3588 1.0061-1.3121 1.7333-2.4405 1.7333s-2.0818-.7272-2.4406-1.7333h-8.9864c-.2618.734-.8398 1.3121-1.5739 1.5738v12.4529c1.0062.3588 1.7333 1.3121 1.7333 2.4405 0 1.4335-1.1665 2.6-2.6 2.6-1.4334 0-2.6-1.1665-2.6-2.6 0-1.1284.7272-2.0817 1.7334-2.4405zm27.7342-19.2267c.4775 0 .8666-.3882.8666-.8666s-.3891-.8667-.8666-.8667c-.4776 0-.8667.3883-.8667.8667s.3891.8666.8667.8666zm-13 5.2c.4775 0 .8666-.3883.8666-.8667s-.3891-.8666-.8666-.8666c-.4776 0-.8667.3882-.8667.8666s.3891.8667.8667.8667zm-13.8667 17.333c.4775 0 .8667-.3883.8667-.8667 0-.4783-.3892-.8666-.8667-.8666s-.8667.3883-.8667.8666c0 .4784.3892.8667.8667.8667zm0-17.333c.4775 0 .8667-.3883.8667-.8667s-.3892-.8666-.8667-.8666-.8667.3882-.8667.8666.3892.8667.8667.8667z"/><path d="m18.2 17.4925v-2.7594c0-.2305.091-.4507.2539-.6127l10.407-10.4068c-.163-.33886-.2609-.71325-.2609-1.11364 0-1.43345 1.1665-2.59996 2.6-2.59996 1.1284 0 2.0817.727121 2.4405 1.7333h3.6262c.4784 0 .8666.3874.8666.86666v2.24116l3.2197 3.21961c.3389-.16293.7133-.26086 1.1137-.26086 1.4334 0 2.6 1.16651 2.6 2.59993 0 1.4335-1.1666 2.6-2.6 2.6-1.4335 0-2.6-1.1665-2.6-2.6 0-.40037.0979-.77476.2608-1.11362l-3.4736-3.47354c-.1629-.16207-.2539-.3822-.2539-.61273v-1.7333h-2.7595c-.3588 1.00618-1.3121 1.7333-2.4405 1.7333-.4004 0-.7748-.09793-1.1137-.26086l-10.153 10.15285v2.4006c1.0062.3588 1.7334 1.3121 1.7334 2.4405 0 1.4334-1.1666 2.6-2.6 2.6-1.4335 0-2.6-1.1666-2.6-2.6 0-1.1284.7271-2.0817 1.7333-2.4405zm24.2667-6.226c.4775 0 .8666-.3883.8666-.8667 0-.47837-.3891-.86663-.8666-.86663-.4776 0-.8667.38826-.8667.86663 0 .4784.3891.8667.8667.8667zm-11.2667-7.79989c.4775 0 .8667-.38826.8667-.86665 0-.4784-.3892-.86666-.8667-.86666s-.8667.38826-.8667.86666c0 .47839.3892.86665.8667.86665zm-12.1333 17.33309c.4775 0 .8666-.3883.8666-.8667s-.3891-.8667-.8666-.8667c-.4776 0-.8667.3883-.8667.8667s.3891.8667.8667.8667z"/><path d="m20.8 24.2663c1.1284 0 2.0817.7271 2.4405 1.7333h10.2007l4.9461-4.946c.162-.163.383-.2539.6127-.2539h9.1745l2.0922-2.0921v-7.0823l-6.6864-6.68625c-.3388.16293-.7132.26086-1.1136.26086-1.4335 0-2.6-1.16651-2.6-2.59995 0-1.43345 1.1665-2.59996 2.6-2.59996 1.4334 0 2.6 1.16651 2.6 2.59996 0 .40039-.098.77478-.2609 1.11364l6.9403 6.9402c.1629.162.2539.3821.2539.6127v7.7998c0 .2306-.091.4507-.2539.6128l-2.6 2.5999c-.1621.163-.3831.254-.6128.254h-9.1745l-4.9461 4.9459c-.162.163-.383.254-.6127.254h-10.5595c-.3588 1.0062-1.3121 1.7333-2.4405 1.7333-1.4335 0-2.6-1.1665-2.6-2.6 0-1.4334 1.1665-2.5999 2.6-2.5999zm21.6667-22.533c-.4776 0-.8667.38826-.8667.86666 0 .47839.3891.86665.8667.86665.4775 0 .8666-.38826.8666-.86665 0-.4784-.3891-.86666-.8666-.86666zm-21.6667 25.9996c.4775 0 .8667-.3883.8667-.8667s-.3892-.8666-.8667-.8666-.8667.3882-.8667.8666.3892.8667.8667.8667z"/><path d="m2.59997 20.7997c.4004 0 .7748.0979 1.11366.2609l3.21967-3.2196v-5.0006c-1.0062-.3588-1.73333-1.3121-1.73333-2.4405 0-1.43346 1.16653-2.59997 2.6-2.59997 1.43346 0 2.60003 1.16651 2.60003 2.59997 0 1.1284-.72717 2.0817-1.73337 2.4405v5.3594c0 .2305-.091.4506-.25393.6127l-3.4736 3.4735c.16294.3389.26087.7133.26087 1.1137 0 1.1283-.72714 2.0817-1.73334 2.4405v.6673l6.67937 6.6793c.163.162.254.3822.254.6127v1.0261c1.0062.3588 1.7333 1.3121 1.7333 2.4405s-.7271 2.0817-1.7333 2.4405v2.0531c1.0062.3588 1.7333 1.3121 1.7333 2.4405 0 1.4334-1.1665 2.5999-2.6 2.5999-1.43347 0-2.6-1.1665-2.6-2.5999 0-1.1284.72713-2.0817 1.73333-2.4405v-2.0531c-1.0062-.3588-1.73333-1.3121-1.73333-2.4405s.72713-2.0817 1.73333-2.4405v-.6673l-6.6794-6.6793c-.16293-.1621-.25393-.3822-.25393-.6127v-1.0261c-1.0062-.3588-1.73333242-1.3122-1.73333242-2.4405 0-1.4335 1.16653242-2.6 2.60000242-2.6zm5.2-9.5332c.47753 0 .86666-.3882.86666-.8666 0-.47841-.38913-.86667-.86666-.86667-.47754 0-.86667.38826-.86667.86667 0 .4784.38913.8666.86667.8666zm1.73333 33.7995c.4775 0 .8667-.3883.8667-.8667s-.3892-.8666-.8667-.8666c-.47753 0-.86667.3882-.86667.8666s.38914.8667.86667.8667zm0-6.9332c.4775 0 .8667-.3883.8667-.8667s-.3892-.8666-.8667-.8666c-.47753 0-.86667.3882-.86667.8666s.38914.8667.86667.8667zm-6.93333-13.8665c.47753 0 .86666-.3882.86666-.8666s-.38913-.8667-.86666-.8667c-.47754 0-.86667.3883-.86667.8667s.38913.8666.86667.8666z"/></g></symbol><symbol id="logo-smart-device-mobile" viewBox="0 0 38 38"><g fill="#00b2ff"><path d="m23.4335 10.1332c.8246 0 1.5212.5313 1.7834 1.2666h6.5664c.2622-.7353.9589-1.2666 1.7835-1.2666 1.0475 0 1.9.8524 1.9 1.8999 0 1.0476-.8525 1.9-1.9 1.9-.8246 0-1.5213-.5313-1.7835-1.2666h-6.567c-.2622.7353-.9589 1.2666-1.7835 1.2666-1.0475 0-1.9-.8524-1.9-1.9 0-1.0475.8531-1.8999 1.9007-1.8999zm10.1333 2.5333c.349 0 .6333-.2838.6333-.6334 0-.3495-.2843-.6333-.6333-.6333s-.6333.2838-.6333.6333c0 .3496.2843.6334.6333.6334zm-10.1333 0c.3489 0 .6333-.2838.6333-.6334 0-.3495-.2844-.6333-.6333-.6333-.349 0-.6334.2838-.6334.6333 0 .3496.2844.6334.6334.6334z"/><path d="m18.3667 14.0497v-3.9165c0-.16845.0665-.32932.1856-.44775l2.5333-2.53329c.1185-.11906.28-.18556.4478-.18556h2.0165c.2622-.73529.9589-1.26665 1.7835-1.26665 1.0475 0 1.9.85245 1.9 1.89997s-.8525 1.89997-1.9 1.89997c-.8246 0-1.5213-.53136-1.7835-1.26665h-1.7543l-2.1622 2.16216v3.6543c.7353.2622 1.2667.9588 1.2667 1.7834 0 1.0475-.8525 1.9-1.9 1.9-1.0476 0-1.9-.8525-1.9-1.9 0-.8246.5313-1.5212 1.2666-1.7834zm6.9667-5.81646c.349 0 .6333-.28373.6333-.63332s-.2843-.63332-.6333-.63332-.6333.28373-.6333.63332.2843.63332.6333.63332zm-6.3333 8.23316c.3489 0 .6333-.2837.6333-.6333s-.2844-.6333-.6333-.6333c-.349 0-.6334.2837-.6334.6333s.2844.6333.6334.6333z"/><path d="m6.96667 16.4664c.2926 0 .5662.0716.81383.1906l1.08617-1.0861v-6.07106c0-.16846.0665-.32933.18556-.44776l6.33837-6.33829c-.119-.24763-.1906-.52123-.1906-.81382 0-1.047518.8525-1.89997 1.9-1.89997s1.9.852452 1.9 1.89997c0 1.04751-.8525 1.89997-1.9 1.89997-.2926 0-.5662-.07157-.8138-.19063l-6.1529 6.15273v6.07106c0 .1684-.0665.3293-.18553.4477l-1.27174 1.2717c.11907.2477.19064.5213.19064.8139 0 1.0475-.85247 1.8999-1.9 1.8999-1.04754 0-1.9-.8524-1.9-1.8999 0-1.0476.85246-1.9 1.9-1.9zm10.13333-13.93311c.349 0 .6333-.28373.6333-.63332 0-.3496-.2843-.63332-.6333-.63332s-.6333.28372-.6333.63332c0 .34959.2843.63332.6333.63332zm-10.13333 16.46641c.34896 0 .63333-.2837.63333-.6333s-.28437-.6334-.63333-.6334c-.34897 0-.63334.2838-.63334.6334s.28437.6333.63334.6333z"/><path d="m1.26696 8.98305v-2.64982c0-.16847.0665-.32933.18557-.44776l4.43333-4.43326c.11843-.11907.27993-.18556.44777-.18556h3.2832c.2622-.735292.95887-1.26665 1.78347-1.26665 1.0475 0 1.9.852452 1.9 1.89997 0 1.04751-.8525 1.89997-1.9 1.89997-.8246 0-1.52127-.53136-1.78347-1.26665h-3.021l-4.0622 4.06213v2.38763c.7353.2622 1.26666.95885 1.26666 1.78345 0 1.0475-.85246 1.9-1.9 1.9-1.047531 0-1.89999722-.8525-1.89999722-1.9 0-.8246.53136722-1.52125 1.26666722-1.78345zm10.13334-6.44976c.349 0 .6333-.28373.6333-.63332 0-.3496-.2843-.63332-.6333-.63332s-.6333.28372-.6333.63332c0 .34959.2843.63332.6333.63332zm-9.50001 8.86651c.34897 0 .63334-.2837.63334-.6333s-.28437-.6333-.63334-.6333c-.34896 0-.63333.2837-.63333.6333s.28437.6333.63333.6333z"/><path d="m10.133 34.3166v-9.1002c-.73467-.2622-1.26604-.9589-1.26604-1.7835 0-1.0475.85247-1.8999 1.90004-1.8999.8246 0 1.5212.5313 1.7834 1.2666h6.5664c.2622-.7353.9589-1.2666 1.7835-1.2666s1.5213.5313 1.7835 1.2666h3.6543l2.3528-2.3528c-.119-.2476-.1906-.5212-.1906-.8138 0-1.0475.8525-1.9 1.9-1.9s1.9.8525 1.9 1.9-.8525 1.9-1.9 1.9c-.2926 0-.5662-.0716-.8138-.1907l-2.5384 2.5384c-.1185.1191-.28.1856-.4478.1856h-3.9165c-.2622.7352-.9589 1.2666-1.7835 1.2666s-1.5213-.5314-1.7835-1.2666h-6.567c-.1913.5364-.6137.9588-1.1501 1.1501v9.1002c.7353.2622 1.2666.9588 1.2666 1.7834 0 1.0475-.8524 1.9-1.9 1.9-1.04751 0-1.89997-.8525-1.89997-1.9 0-.8246.53136-1.5212 1.26667-1.7834zm20.2673-14.0503c.349 0 .6333-.2837.6333-.6333s-.2843-.6333-.6333-.6333-.6333.2837-.6333.6333.2843.6333.6333.6333zm-9.5 3.8c.349 0 .6333-.2838.6333-.6334s-.2843-.6333-.6333-.6333-.6333.2837-.6333.6333.2843.6334.6333.6334zm-10.1333 12.6664c.3489 0 .6333-.2837.6333-.6333s-.2844-.6333-.6333-.6333c-.349 0-.6334.2837-.6334.6333s.2844.6333.6334.6333zm0-12.6664c.3489 0 .6333-.2838.6333-.6334s-.2844-.6333-.6333-.6333c-.349 0-.6334.2837-.6334.6333s.2844.6334.6334.6334z"/><path d="m13.2998 12.783v-2.0165c0-.1685.0665-.3293.1855-.4478l7.6051-7.60491c-.1191-.24763-.1906-.52123-.1906-.81382 0-1.047518.8524-1.89997 1.9-1.89997.8246 0 1.5212.531358 1.7834 1.26665h2.6499c.3496 0 .6333.28309.6333.63332v1.63777l2.3529 2.35279c.2476-.11906.5212-.19063.8138-.19063 1.0475 0 1.9.85246 1.9 1.89997 0 1.04752-.8525 1.89997-1.9 1.89997s-1.9-.85245-1.9-1.89997c0-.29259.0716-.56619.1906-.81382l-2.5384-2.53835c-.119-.11844-.1855-.2793-.1855-.44776v-1.26665h-2.0166c-.2622.73529-.9588 1.26665-1.7834 1.26665-.2926 0-.5662-.07157-.8139-.19063l-7.4195 7.41939v1.7543c.7353.2622 1.2667.9588 1.2667 1.7834 0 1.0475-.8525 1.9-1.9 1.9s-1.9-.8525-1.9-1.9c0-.8246.5314-1.5212 1.2667-1.7834zm17.7333-4.5498c.349 0 .6333-.28373.6333-.63333 0-.34959-.2843-.63332-.6333-.63332s-.6333.28373-.6333.63332c0 .3496.2843.63333.6333.63333zm-8.2333-5.69991c.3489 0 .6333-.28373.6333-.63332 0-.3496-.2844-.63332-.6333-.63332-.349 0-.6334.28372-.6334.63332 0 .34959.2844.63332.6334.63332zm-8.8667 12.66641c.349 0 .6333-.2837.6333-.6333s-.2843-.6333-.6333-.6333-.6333.2837-.6333.6333.2843.6333.6333.6333z"/><path d="m15.2 17.733c.8246 0 1.5213.5314 1.7835 1.2667h7.4543l3.6144-3.6144c.1185-.1191.28-.1856.4478-.1856h6.7045l1.5288-1.5288v-5.17551l-4.8861-4.88608c-.2477.11906-.5213.19063-.8139.19063-1.0475 0-1.9-.85246-1.9-1.89997 0-1.047518.8525-1.89997 1.9-1.89997 1.0476 0 1.9.852452 1.9 1.89997 0 .29259-.0715.56619-.1906.81382l5.0717 5.07165c.1191.11843.1856.27929.1856.44776v5.6999c0 .1685-.0665.3293-.1856.4478l-1.9 1.8999c-.1184.1191-.2799.1856-.4477.1856h-6.7045l-3.6144 3.6144c-.1185.119-.28.1855-.4478.1855h-7.7165c-.2622.7353-.9589 1.2667-1.7835 1.2667-1.0475 0-1.9-.8525-1.9-1.9s.8525-1.9 1.9-1.9zm15.8333-16.46635c-.3489 0-.6333.28372-.6333.63332 0 .34959.2844.63332.6333.63332.349 0 .6334-.28373.6334-.63332 0-.3496-.2844-.63332-.6334-.63332zm-15.8333 18.99965c.349 0 .6333-.2837.6333-.6333s-.2843-.6333-.6333-.6333-.6333.2837-.6333.6333.2843.6333.6333.6333z"/><path d="m1.90052 15.1998c.2926 0 .5662.0716.81383.1906l2.35284-2.3528v-3.65424c-.7353-.2622-1.26667-.95885-1.26667-1.78344 0-1.04752.85247-1.89997 1.9-1.89997s1.9.85245 1.9 1.89997c0 .82459-.53137 1.52124-1.26667 1.78344v3.91644c0 .1685-.0665.3294-.18556.4478l-2.5384 2.5383c.11907.2477.19063.5213.19063.8139 0 .8245-.53137 1.5212-1.26667 1.7834v.4877l4.8811 4.881c.11907.1184.18557.2793.18557.4477v.7499c.7353.2622 1.26667.9588 1.26667 1.7834s-.53137 1.5213-1.26667 1.7835v1.5003c.7353.2622 1.26667.9589 1.26667 1.7834 0 1.0476-.85247 1.9-1.9 1.9-1.04754 0-1.9-.8524-1.9-1.9 0-.8245.53136-1.5212 1.26666-1.7834v-1.5003c-.7353-.2622-1.26666-.9589-1.26666-1.7835s.53136-1.5212 1.26666-1.7834v-.4877l-4.8811-4.881c-.11906-.1184-.18556-.2793-.18556-.4477v-.7499c-.735302-.2622-1.26666929-.9589-1.26666929-1.7834 0-1.0476.85246629-1.9 1.89999929-1.9zm3.8-6.96656c.34897 0 .63333-.28373.63333-.63332s-.28436-.63332-.63333-.63332-.63333.28373-.63333.63332.28436.63332.63333.63332zm1.26667 24.69956c.34896 0 .63333-.2837.63333-.6333s-.28437-.6333-.63333-.6333c-.34897 0-.63334.2837-.63334.6333s.28437.6333.63334.6333zm0-5.0666c.34896 0 .63333-.2837.63333-.6333s-.28437-.6333-.63333-.6333c-.34897 0-.63334.2837-.63334.6333s.28437.6333.63334.6333zm-5.06667-10.1331c.34897 0 .63333-.2837.63333-.6333s-.28436-.6334-.63333-.6334-.63333.2838-.63333.6334.28436.6333.63333.6333z"/></g></symbol><symbol id="logo-smart-device" viewBox="0 0 202 52"><path d="m76.9355 24.3369c0-.7243-.1871-1.2695-.5615-1.6357-.3662-.3744-1.0376-.7609-2.0141-1.1597-1.7823-.6755-3.064-1.4648-3.8453-2.3682-.7812-.9114-1.1718-1.9856-1.1718-3.2226 0-1.4974.5289-2.6978 1.5869-3.6011 1.0661-.9114 2.417-1.3672 4.0527-1.3672 1.0905 0 2.063.232 2.9175.6958.8545.4558 1.5096 1.1027 1.9653 1.9409.4639.8383.6958 1.7904.6958 2.8565h-3.5766c0-.8301-.1791-1.4608-.5371-1.8921-.35-.4395-.8586-.6592-1.5259-.6592-.6266 0-1.1149.1872-1.4649.5615-.3499.3663-.5249.8627-.5249 1.4893 0 .4883.1954.9318.586 1.3306.3906.3906 1.0823.7975 2.0752 1.2207 1.7334.6266 2.9907 1.3956 3.7719 2.3071.7894.9115 1.1841 2.0711 1.1841 3.479 0 1.5462-.4923 2.7547-1.477 3.6255s-2.3234 1.3061-4.0161 1.3061c-1.1475 0-2.1932-.236-3.1372-.708-.9441-.472-1.6846-1.1474-2.2217-2.0263-.529-.8789-.7935-1.9165-.7935-3.1128h3.6011c0 1.0254.1994 1.77.5981 2.2339.3988.4638 1.0498.6958 1.9532.6958 1.2532 0 1.8798-.6633 1.8798-1.9898zm9.0699-8.5449.0976 1.2207c.7731-.9766 1.7945-1.4648 3.064-1.4648 1.3184 0 2.2502.594 2.7954 1.7822.7568-1.1882 1.8351-1.7822 3.2349-1.7822 2.3112 0 3.4952 1.5991 3.5522 4.7973v8.6548h-3.4546v-8.4351c0-.7649-.1058-1.3102-.3174-1.6357-.2115-.3255-.5696-.4883-1.0742-.4883-.6429 0-1.123.3947-1.4404 1.1841l.0244.415v8.96h-3.4546v-8.4106c0-.7569-.1017-1.3021-.3052-1.6358-.2034-.3418-.5656-.5127-1.0864-.5127-.5941 0-1.0661.3215-1.416.9644v9.5947h-3.4546v-13.208zm21.5816 13.208c-.097-.2035-.195-.5452-.293-1.0254-.618.8464-1.456 1.2695-2.514 1.2695-1.107 0-2.027-.3662-2.759-1.0986-.724-.7324-1.086-1.6805-1.086-2.8442 0-1.3835.439-2.4536 1.318-3.2105.887-.7568 2.161-1.1434 3.821-1.1596h1.05v-1.0621c0-.594-.102-1.0131-.306-1.2573-.203-.2441-.5-.3662-.891-.3662-.862 0-1.294.5046-1.294 1.5137h-3.454c0-1.2207.455-2.2258 1.367-3.0152.919-.7975 2.079-1.1962 3.479-1.1962 1.448 0 2.567.3784 3.357 1.1352.797.7487 1.196 1.8229 1.196 3.2227v6.2133c.016 1.1394.179 2.0305.488 2.6734v.2075zm-2.038-2.4658c.382 0 .708-.0773.976-.232.269-.1546.468-.3377.599-.5493v-2.7466h-.831c-.585 0-1.049.1872-1.391.5616-.334.3743-.501.8748-.501 1.5014 0 .9766.383 1.4649 1.148 1.4649zm14.05-7.4097-1.147-.0976c-.944 0-1.583.415-1.917 1.2451v8.728h-3.467v-13.208h3.26l.097 1.4282c.546-1.1149 1.298-1.6723 2.259-1.6723.39 0 .708.0528.952.1586zm6.409-6.5796v3.2471h1.77v2.6001h-1.77v6.5552c0 .5208.069.8789.207 1.0742.147.1953.424.293.83.293.334 0 .607-.0285.818-.0855l-.024 2.6856c-.586.2197-1.221.3295-1.904.3295-2.23 0-3.357-1.2776-3.382-3.833v-7.019h-1.526v-2.6001h1.526v-3.2471zm9.607 16.4551v-17.7734h4.699c2.076 0 3.728.6591 4.957 1.9775 1.236 1.3184 1.867 3.125 1.892 5.4199v2.8809c0 2.3356-.619 4.1707-1.856 5.5054-1.229 1.3265-2.925 1.9897-5.09 1.9897zm3.589-14.7827v11.8042h1.074c1.196 0 2.038-.3133 2.527-.94.488-.6347.744-1.7252.769-3.2714v-3.0884c0-1.6602-.232-2.8158-.696-3.4668-.464-.6592-1.253-1.0051-2.368-1.0376zm15.71 15.0268c-1.774 0-3.157-.5289-4.15-1.5869-.993-1.0579-1.49-2.5716-1.49-4.541v-1.0498c0-2.0833.456-3.6906 1.368-4.8218.911-1.1312 2.217-1.6967 3.918-1.6967 1.66 0 2.909.533 3.748 1.5991.838 1.0579 1.265 2.6286 1.281 4.7119v1.6968h-6.872c.049.9765.264 1.6927.647 2.1484.382.4476.972.6714 1.77.6714 1.155 0 2.12-.3947 2.893-1.1841l1.355 2.0874c-.423.5859-1.038 1.062-1.843 1.4282-.806.3581-1.681.5371-2.625.5371zm-2.173-8.1054h3.455v-.3174c-.016-.7894-.147-1.3875-.391-1.7944s-.667-.6104-1.269-.6104c-.603 0-1.042.2157-1.319.647-.268.4313-.427 1.123-.476 2.0752zm12.964 2.9785 1.672-8.3252h3.602l-3.626 13.208h-3.296l-3.638-13.208h3.614zm10.523 4.8828h-3.467v-13.208h3.467zm-3.626-16.626c0-.5371.171-.9765.513-1.3183s.797-.5127 1.367-.5127 1.025.1709 1.367.5127.513.7812.513 1.3183c0 .529-.171.9684-.513 1.3184-.334.3499-.789.5249-1.367.5249s-1.038-.175-1.379-.5249c-.334-.35-.501-.7894-.501-1.3184zm11.072 14.0015c1.001 0 1.509-.6511 1.526-1.9531h3.247c-.016 1.4404-.46 2.6041-1.331 3.4912-.871.887-1.994 1.3305-3.369 1.3305-1.701 0-2.999-.5289-3.894-1.5869-.895-1.0579-1.351-2.6163-1.367-4.6753v-1.0498c0-2.0752.439-3.658 1.318-4.7485.887-1.0905 2.193-1.6357 3.919-1.6357 1.456 0 2.604.4516 3.442 1.3549.838.8952 1.266 2.1688 1.282 3.8208h-3.247c-.008-.7405-.131-1.3102-.367-1.709-.236-.3987-.626-.5981-1.171-.5981-.603 0-1.034.2157-1.294.647-.261.4232-.399 1.2492-.415 2.478v1.3428c0 1.0742.053 1.827.158 2.2583.106.4232.281.7365.525.9399.244.1953.59.293 1.038.293zm12.06 2.8686c-1.774 0-3.157-.5289-4.15-1.5869-.993-1.0579-1.489-2.5716-1.489-4.541v-1.0498c0-2.0833.455-3.6906 1.367-4.8218.911-1.1312 2.218-1.6967 3.918-1.6967 1.661 0 2.91.533 3.748 1.5991.838 1.0579 1.265 2.6286 1.282 4.7119v1.6968h-6.873c.049.9765.265 1.6927.647 2.1484.383.4476.973.6714 1.77.6714 1.156 0 2.12-.3947 2.893-1.1841l1.355 2.0874c-.423.5859-1.037 1.062-1.843 1.4282-.806.3581-1.681.5371-2.625.5371zm-2.172-8.1054h3.454v-.3174c-.016-.7894-.146-1.3875-.391-1.7944-.244-.4069-.667-.6104-1.269-.6104s-1.042.2157-1.318.647c-.269.4313-.428 1.123-.476 2.0752z" fill="#fff"/><path d="m70.9473 44.9609 1.289-4.3007h1.5176l-2.5195 7.3007c-.3867 1.0664-1.043 1.5996-1.9688 1.5996-.207 0-.4355-.0351-.6855-.1054v-1.1016l.2695.0176c.3594 0 .6289-.0664.8086-.1992.1836-.1289.3281-.3477.4336-.6563l.2051-.5449-2.2266-6.3105h1.5352zm7.3945.2871 1.875-4.5878h1.7812v6.3398h-1.4238v-4.1953l-1.7461 4.1953h-.9668l-1.7519-4.2188v4.2188h-1.4239v-6.3398h1.793zm10.6289 1.752h-1.4238v-2.5605h-2.4668v2.5605h-1.4239v-6.3398h1.4239v2.6425h2.4668v-2.6425h1.4238zm3.0527-4.3242h1.3946c.5195 0 .9726.0898 1.3593.2695.3868.1797.6797.4317.8789.7559.2032.3242.3047.7011.3047 1.1308 0 .6524-.2304 1.1758-.6914 1.5703-.4609.3946-1.0742.5938-1.8398.5977h-2.8301v-6.3398h1.4238zm6.4161 4.3242h-1.4239v-6.3398h1.4239zm-6.4161-3.1816v2.0449h1.3887c.3477 0 .6211-.086.8203-.2578.2031-.1758.3047-.4239.3047-.7442s-.0996-.5722-.2988-.7558c-.1953-.1875-.461-.2832-.7969-.2871zm10.9156 3.2988c-.902 0-1.634-.2832-2.197-.8496-.558-.5703-.8377-1.3281-.8377-2.2735v-.1757c0-.6329.1207-1.1973.3637-1.6934.246-.5.589-.8887 1.031-1.166.441-.2774.933-.416 1.476-.416.864 0 1.53.2754 1.998.8261.473.5508.709 1.3301.709 2.3379v.5742h-4.142c.043.5235.217.9376.521 1.2422.309.3047.696.4571 1.16.4571.653 0 1.184-.2637 1.594-.791l.768.7324c-.254.3789-.594.6738-1.02.8847-.422.2071-.896.3106-1.424.3106zm-.169-5.4317c-.391 0-.708.1368-.95.4102-.238.2734-.39.6543-.457 1.1426h2.713v-.1055c-.031-.4766-.158-.8359-.381-1.0781-.222-.2461-.531-.3692-.925-.3692zm11.8.1055h-2.056v5.209h-1.424v-5.209h-2.033v-1.1308h5.513zm3.369 5.3262c-.902 0-1.634-.2832-2.197-.8496-.558-.5703-.838-1.3281-.838-2.2735v-.1757c0-.6329.121-1.1973.364-1.6934.246-.5.589-.8887 1.031-1.166.441-.2774.933-.416 1.476-.416.864 0 1.53.2754 1.998.8261.473.5508.709 1.3301.709 2.3379v.5742h-4.142c.043.5235.217.9376.521 1.2422.309.3047.696.4571 1.16.4571.653 0 1.184-.2637 1.594-.791l.768.7324c-.254.3789-.594.6738-1.02.8847-.422.2071-.896.3106-1.424.3106zm-.169-5.4317c-.391 0-.708.1368-.95.4102-.238.2734-.39.6543-.457 1.1426h2.713v-.1055c-.031-.4766-.158-.8359-.381-1.0781-.222-.2461-.531-.3692-.925-.3692zm6.099 1.0606 1.207-2.0859h1.582l-1.939 3.123 2.004 3.2168h-1.571l-1.265-2.168-1.26 2.168h-1.582l2.004-3.2168-1.934-3.123h1.571zm9.129 4.2539h-1.424v-2.5605h-2.467v2.5605h-1.423v-6.3398h1.423v2.6425h2.467v-2.6425h1.424zm1.254-3.2285c0-.6211.123-1.1797.369-1.6758.246-.5.592-.8828 1.037-1.1484.446-.2696.957-.4043 1.535-.4043.856 0 1.549.2754 2.08.8261.536.5508.825 1.2813.868 2.1914l.005.334c0 .625-.121 1.1836-.363 1.6758-.238.4922-.582.8731-1.031 1.1426-.445.2695-.961.4043-1.547.4043-.894 0-1.611-.2969-2.15-.8906-.535-.5977-.803-1.3926-.803-2.3848zm1.424.123c0 .6524.135 1.1641.404 1.5352.27.3672.645.5508 1.125.5508.481 0 .854-.1875 1.119-.5625.27-.375.405-.9239.405-1.6465 0-.6406-.139-1.1485-.417-1.5235-.273-.375-.646-.5625-1.119-.5625-.464 0-.834.1856-1.107.5567-.274.3672-.41.918-.41 1.6523zm10.969-3.2343v6.3398h-1.424v-5.1914h-1.793l-.117 2.209c-.075 1.0625-.28 1.8262-.616 2.291-.332.4609-.841.6914-1.529.6914h-.439l-.006-1.1836.293-.0293c.312-.043.539-.2324.679-.5683.145-.3399.237-.9571.276-1.8516l.117-2.707zm1.248 3.1113c0-.6211.123-1.1797.369-1.6758.246-.5.592-.8828 1.037-1.1484.445-.2696.957-.4043 1.535-.4043.855 0 1.549.2754 2.08.8261.535.5508.824 1.2813.867 2.1914l.006.334c0 .625-.121 1.1836-.363 1.6758-.238.4922-.582.8731-1.031 1.1426-.446.2695-.961.4043-1.547.4043-.895 0-1.612-.2969-2.151-.8906-.535-.5977-.802-1.3926-.802-2.3848zm1.423.123c0 .6524.135 1.1641.405 1.5352.269.3672.644.5508 1.125.5508.48 0 .853-.1875 1.119-.5625.269-.375.404-.9239.404-1.6465 0-.6406-.139-1.1485-.416-1.5235-.273-.375-.646-.5625-1.119-.5625-.465 0-.834.1856-1.107.5567-.274.3672-.411.918-.411 1.6523zm9.897-2.0859h-2.754v5.1914h-1.418v-6.3398h4.172zm4.764-1.1484h1.418v6.3398h-1.418v-4.2305l-2.485 4.2305h-1.418v-6.3398h1.418v4.2304zm6.89 0h1.418v6.3398h-1.418v-4.2305l-2.484 4.2305h-1.418v-6.3398h1.418v4.2304z" fill="#788891"/><g fill="#00b2ff"><path d="m32.0668 13.8665c1.1284 0 2.0817.7271 2.4405 1.7333h8.9856c.3588-1.0062 1.3121-1.7333 2.4405-1.7333 1.4335 0 2.6 1.1665 2.6 2.5999 0 1.4335-1.1665 2.6-2.6 2.6-1.1284 0-2.0817-.7272-2.4405-1.7333h-8.9865c-.3588 1.0061-1.3121 1.7333-2.4405 1.7333-1.4335 0-2.6-1.1665-2.6-2.6 0-1.4334 1.1674-2.5999 2.6009-2.5999zm13.8666 3.4666c.4776 0 .8667-.3883.8667-.8667s-.3891-.8666-.8667-.8666c-.4775 0-.8666.3882-.8666.8666s.3891.8667.8666.8667zm-13.8666 0c.4775 0 .8666-.3883.8666-.8667s-.3891-.8666-.8666-.8666c-.4776 0-.8667.3882-.8667.8666s.3891.8667.8667.8667z"/><path d="m25.1333 19.2259v-5.3594c0-.2305.091-.4507.2539-.6127l3.4667-3.46664c.162-.16293.383-.25393.6127-.25393h2.7595c.3588-1.00618 1.3121-1.7333 2.4405-1.7333 1.4335 0 2.6 1.16651 2.6 2.59997 0 1.4334-1.1665 2.5999-2.6 2.5999-1.1284 0-2.0817-.7271-2.4405-1.7333h-2.4007l-2.9588 2.9588v5.0006c1.0062.3588 1.7333 1.3121 1.7333 2.4405 0 1.4334-1.1665 2.5999-2.6 2.5999-1.4334 0-2.6-1.1665-2.6-2.5999 0-1.1284.7272-2.0817 1.7334-2.4405zm9.5333-7.9594c.4775 0 .8667-.3882.8667-.8666 0-.47841-.3892-.86667-.8667-.86667s-.8667.38826-.8667.86667c0 .4784.3892.8666.8667.8666zm-8.6667 11.2665c.4776 0 .8667-.3882.8667-.8666s-.3891-.8667-.8667-.8667c-.4775 0-.8666.3883-.8666.8667s.3891.8666.8666.8666z"/><path d="m9.53333 22.533c.4004 0 .77477.0979 1.11367.2608l1.4863-1.4863v-8.3077c0-.2305.091-.4507.254-.6127l8.6736-8.6735c-.163-.33886-.2609-.71325-.2609-1.11364 0-1.43345 1.1665-2.59996 2.6-2.59996s2.6 1.16651 2.6 2.59996c0 1.43344-1.1665 2.59995-2.6 2.59995-.4004 0-.7748-.09793-1.1137-.26086l-8.4196 8.41955v8.3077c0 .2305-.091.4507-.254.6127l-1.7402 1.7403c.1629.3388.2608.7132.2608 1.1136 0 1.4335-1.1665 2.6-2.59997 2.6s-2.6-1.1665-2.6-2.6c0-1.4334 1.16653-2.5999 2.6-2.5999zm13.86667-19.06639c.4775 0 .8667-.38826.8667-.86665 0-.4784-.3892-.86666-.8667-.86666s-.8667.38826-.8667.86666c0 .47839.3892.86665.8667.86665zm-13.86667 22.53299c.47757 0 .86667-.3883.86667-.8667s-.3891-.8666-.86667-.8666c-.47753 0-.86666.3882-.86666.8666s.38913.8667.86666.8667z"/><path d="m1.73328 12.2926v-3.62608c0-.23053.091-.45066.25394-.61272l6.06666-6.06657c.16207-.16293.38307-.25393.61274-.25393h4.49278c.3588-1.006179 1.3122-1.7333 2.4406-1.7333 1.4334 0 2.6 1.16651 2.6 2.59996 0 1.43344-1.1666 2.59995-2.6 2.59995-1.1284 0-2.0818-.72712-2.4406-1.7333h-4.13398l-5.5588 5.55871v3.26728c1.0062.3588 1.73333 1.3121 1.73333 2.4405 0 1.4334-1.16653 2.5999-2.6 2.5999s-2.59999959-1.1665-2.59999959-2.5999c0-1.1284.72713459-2.0817 1.73332959-2.4405zm13.86672-8.82599c.4775 0 .8666-.38826.8666-.86665 0-.4784-.3891-.86666-.8666-.86666-.4776 0-.8667.38826-.8667.86666 0 .47839.3891.86665.8667.86665zm-13.00005 12.13309c.47753 0 .86667-.3882.86667-.8666s-.38914-.8667-.86667-.8667-.86667.3883-.86667.8667.38914.8666.86667.8666z"/><path d="m13.8658 46.9595v-12.4529c-1.0054-.3588-1.7325-1.3121-1.7325-2.4405 0-1.4334 1.1665-2.6 2.6-2.6 1.1284 0 2.0817.7272 2.4405 1.7334h8.9856c.3588-1.0062 1.3122-1.7334 2.4406-1.7334s2.0817.7272 2.4405 1.7334h5.0007l3.2196-3.2197c-.1629-.3388-.2608-.7132-.2608-1.1136 0-1.4335 1.1665-2.6 2.6-2.6 1.4334 0 2.6 1.1665 2.6 2.6 0 1.4334-1.1666 2.5999-2.6 2.5999-.4004 0-.7748-.0979-1.1137-.2608l-3.4736 3.4735c-.1621.163-.3831.254-.6127.254h-5.3595c-.3588 1.0061-1.3121 1.7333-2.4405 1.7333s-2.0818-.7272-2.4406-1.7333h-8.9864c-.2618.734-.8398 1.3121-1.5739 1.5738v12.4529c1.0062.3588 1.7333 1.3121 1.7333 2.4405 0 1.4335-1.1665 2.6-2.6 2.6-1.4334 0-2.6-1.1665-2.6-2.6 0-1.1284.7272-2.0817 1.7334-2.4405zm27.7342-19.2267c.4775 0 .8666-.3882.8666-.8666s-.3891-.8667-.8666-.8667c-.4776 0-.8667.3883-.8667.8667s.3891.8666.8667.8666zm-13 5.2c.4775 0 .8666-.3883.8666-.8667s-.3891-.8666-.8666-.8666c-.4776 0-.8667.3882-.8667.8666s.3891.8667.8667.8667zm-13.8667 17.333c.4775 0 .8667-.3883.8667-.8667 0-.4783-.3892-.8666-.8667-.8666s-.8667.3883-.8667.8666c0 .4784.3892.8667.8667.8667zm0-17.333c.4775 0 .8667-.3883.8667-.8667s-.3892-.8666-.8667-.8666-.8667.3882-.8667.8666.3892.8667.8667.8667z"/><path d="m18.2 17.4925v-2.7594c0-.2305.091-.4507.2539-.6127l10.407-10.4068c-.163-.33886-.2609-.71325-.2609-1.11364 0-1.43345 1.1665-2.59996 2.6-2.59996 1.1284 0 2.0817.727121 2.4405 1.7333h3.6262c.4784 0 .8666.3874.8666.86666v2.24116l3.2197 3.21961c.3389-.16293.7133-.26086 1.1137-.26086 1.4334 0 2.6 1.16651 2.6 2.59993 0 1.4335-1.1666 2.6-2.6 2.6-1.4335 0-2.6-1.1665-2.6-2.6 0-.40037.0979-.77476.2608-1.11362l-3.4736-3.47354c-.1629-.16207-.2539-.3822-.2539-.61273v-1.7333h-2.7595c-.3588 1.00618-1.3121 1.7333-2.4405 1.7333-.4004 0-.7748-.09793-1.1137-.26086l-10.153 10.15285v2.4006c1.0062.3588 1.7334 1.3121 1.7334 2.4405 0 1.4334-1.1666 2.6-2.6 2.6-1.4335 0-2.6-1.1666-2.6-2.6 0-1.1284.7271-2.0817 1.7333-2.4405zm24.2667-6.226c.4775 0 .8666-.3883.8666-.8667 0-.47837-.3891-.86663-.8666-.86663-.4776 0-.8667.38826-.8667.86663 0 .4784.3891.8667.8667.8667zm-11.2667-7.79989c.4775 0 .8667-.38826.8667-.86665 0-.4784-.3892-.86666-.8667-.86666s-.8667.38826-.8667.86666c0 .47839.3892.86665.8667.86665zm-12.1333 17.33309c.4775 0 .8666-.3883.8666-.8667s-.3891-.8667-.8666-.8667c-.4776 0-.8667.3883-.8667.8667s.3891.8667.8667.8667z"/><path d="m20.8 24.2663c1.1284 0 2.0817.7271 2.4405 1.7333h10.2007l4.9461-4.946c.162-.163.383-.2539.6127-.2539h9.1745l2.0922-2.0921v-7.0823l-6.6864-6.68625c-.3388.16293-.7132.26086-1.1136.26086-1.4335 0-2.6-1.16651-2.6-2.59995 0-1.43345 1.1665-2.59996 2.6-2.59996 1.4334 0 2.6 1.16651 2.6 2.59996 0 .40039-.098.77478-.2609 1.11364l6.9403 6.9402c.1629.162.2539.3821.2539.6127v7.7998c0 .2306-.091.4507-.2539.6128l-2.6 2.5999c-.1621.163-.3831.254-.6128.254h-9.1745l-4.9461 4.9459c-.162.163-.383.254-.6127.254h-10.5595c-.3588 1.0062-1.3121 1.7333-2.4405 1.7333-1.4335 0-2.6-1.1665-2.6-2.6 0-1.4334 1.1665-2.5999 2.6-2.5999zm21.6667-22.533c-.4776 0-.8667.38826-.8667.86666 0 .47839.3891.86665.8667.86665.4775 0 .8666-.38826.8666-.86665 0-.4784-.3891-.86666-.8666-.86666zm-21.6667 25.9996c.4775 0 .8667-.3883.8667-.8667s-.3892-.8666-.8667-.8666-.8667.3882-.8667.8666.3892.8667.8667.8667z"/><path d="m2.59997 20.7997c.4004 0 .7748.0979 1.11366.2609l3.21967-3.2196v-5.0006c-1.0062-.3588-1.73333-1.3121-1.73333-2.4405 0-1.43346 1.16653-2.59997 2.6-2.59997 1.43346 0 2.60003 1.16651 2.60003 2.59997 0 1.1284-.72717 2.0817-1.73337 2.4405v5.3594c0 .2305-.091.4506-.25393.6127l-3.4736 3.4735c.16294.3389.26087.7133.26087 1.1137 0 1.1283-.72714 2.0817-1.73334 2.4405v.6673l6.67937 6.6793c.163.162.254.3822.254.6127v1.0261c1.0062.3588 1.7333 1.3121 1.7333 2.4405s-.7271 2.0817-1.7333 2.4405v2.0531c1.0062.3588 1.7333 1.3121 1.7333 2.4405 0 1.4334-1.1665 2.5999-2.6 2.5999-1.43347 0-2.6-1.1665-2.6-2.5999 0-1.1284.72713-2.0817 1.73333-2.4405v-2.0531c-1.0062-.3588-1.73333-1.3121-1.73333-2.4405s.72713-2.0817 1.73333-2.4405v-.6673l-6.6794-6.6793c-.16293-.1621-.25393-.3822-.25393-.6127v-1.0261c-1.0062-.3588-1.73333242-1.3122-1.73333242-2.4405 0-1.4335 1.16653242-2.6 2.60000242-2.6zm5.2-9.5332c.47753 0 .86666-.3882.86666-.8666 0-.47841-.38913-.86667-.86666-.86667-.47754 0-.86667.38826-.86667.86667 0 .4784.38913.8666.86667.8666zm1.73333 33.7995c.4775 0 .8667-.3883.8667-.8667s-.3892-.8666-.8667-.8666c-.47753 0-.86667.3882-.86667.8666s.38914.8667.86667.8667zm0-6.9332c.4775 0 .8667-.3883.8667-.8667s-.3892-.8666-.8667-.8666c-.47753 0-.86667.3882-.86667.8666s.38914.8667.86667.8667zm-6.93333-13.8665c.47753 0 .86666-.3882.86666-.8666s-.38913-.8667-.86666-.8667c-.47754 0-.86667.3883-.86667.8667s.38913.8666.86667.8666z"/></g></symbol></svg>