<svg xmlns="http://www.w3.org/2000/svg" xmlns:xlink="http://www.w3.org/1999/xlink"><symbol id="icon-confidentiality" viewBox="0 0 36 31"><g fill="#00b2ff"><path d="m18 9.75821c-.3881 0-.7031.31699-.7031.70809 0 .3908.315.708.7031.708s.7031-.3172.7031-.708c0-.3911-.315-.70809-.7031-.70809z"/><path d="m33.8906 14.0066h-2.7358c-1.4423-4.14714-3.5349-11.41886-7.3257-13.476929-1.896-1.028069-3.6881-.310053-4.3622 1.148659-.2867.62011-.8594.9462-1.4669.9462-.6158 0-1.1838-.33329-1.4669-.94565-.6502-1.408923-2.3995-2.192767-4.229-1.298566-3.85149 1.883546-6.00536 9.447886-7.45885 13.626286h-2.73587c-1.16538 0-2.10938.9503-2.10938 2.1242 0 1.171.946198 2.1241 2.10938 2.1241h31.78122c1.1654 0 2.1094-.9506 2.1094-2.1241 0-1.1714-.9462-2.1242-2.1094-2.1242zm-26.57535-2.8323h7.87225c.3884 0 .7031-.3172.7031-.708 0-.3911-.3147-.70807-.7031-.70807h-7.38062c2.11954-5.89598 4.09952-7.60915 5.11142-8.10396 1.1038-.53934 2.0124-.08796 2.3398.62176.5158 1.11575 1.5828 1.76462 2.7419 1.76462 1.1618 0 2.2275-.65136 2.7419-1.76462.337-.72991 1.2503-1.134 2.42-.49979 1.0165.55207 2.9905 2.32221 5.0309 7.98199h-7.3803c-.3884 0-.7031.31697-.7031.70807s.3147.708.7031.708h7.8725c.3554 1.0323.7246 2.0974.98 2.8323h-23.32973c.2546-.733.62292-1.7956.97998-2.8323zm26.57535 5.6645h-31.78122c-.38782 0-.70313-.3178-.70313-.708 0-.3911.31476-.7081.70313-.7081h31.78122c.3878 0 .7032.3175.7032.7081 0 .3908-.3151.708-.7032.708z"/><path d="m16.5938 21.0873h-11.25005c-.38837 0-.70313.3169-.70313.708v2.8322c0 3.5138 2.83887 6.3726 6.32818 6.3726 2.6438 0 4.9839-1.6377 5.9147-4.1048.707-.3247 1.526-.3247 2.233 0 .9308 2.4671 3.2709 4.1045 5.9147 4.1045 3.4893 0 6.3282-2.8585 6.3282-6.3725v-2.8323c0-.3911-.3148-.708-.7032-.708h-11.25c-.3883 0-.7031.3169-.7031.708v.7081h-1.4062v-.7081c0-.3908-.3148-.7077-.7031-.7077zm-5.625 8.4967c-2.71395 0-4.92192-2.2235-4.92192-4.9565v-2.1241h9.84372v2.1241c0 2.7402-2.1961 4.9565-4.9218 4.9565zm9.1406-7.0806h9.8437v2.1241c0 2.733-2.208 4.9565-4.9219 4.9565-2.7325 0-4.9218-2.223-4.9218-4.9565zm-1.4063 1.4161v.708c0 .2263.0129.4517.0363.6755-.4886-.0899-.9902-.0899-1.4788 0 .0234-.2238.0363-.4492.0363-.6755v-.708z"/><path d="m10.9688 26.7516c-1.16323 0-2.10942-.9531-2.10942-2.1242 0-.3911-.31476-.708-.70313-.708s-.70313.3169-.70313.708c0 1.9519 1.57709 3.5403 3.51568 3.5403.3883 0 .7031-.3172.7031-.708 0-.3911-.3148-.7081-.7031-.7081z"/><path d="m25.0312 28.1677c1.9386 0 3.5157-1.5884 3.5157-3.5403 0-.3911-.3148-.708-.7031-.708-.3884 0-.7032.3169-.7032.708 0 1.1711-.9462 2.1242-2.1094 2.1242-.3883 0-.7031.317-.7031.7081 0 .3908.3148.708.7031.708z"/></g></symbol><symbol id="icon-price" viewBox="0 0 35 35"><g fill="#00b2ff"><path d="m11.0707 8.58469c-.1271-.12717-.3035-.20032-.4833-.20032s-.3562.07315-.4833.20032c-.12708.12717-.20029.30356-.20029.48338 0 .17981.07314.3562.20029.48337.1271.12724.3035.20032.4833.20032s.3562-.07315.4833-.20032.2003-.30356.2003-.48337c0-.17982-.0731-.35621-.2003-.48338z"/><path d="m34.8 2.85866-.8452-.84635.845-.84512c.2669-.266983.2669-.6999 0-.966952-.267-.2669839-.6998-.2669839-.9668 0l-.8445.844572-.8329-.833975c-.1281-.1282615-.3019-.2004599-.4832-.2005283l-11.5701-.00642672c-.0007 0-.0013 0-.0019 0-.9136 0-1.7726.35579602-2.4186 1.00196002l-5.7737 5.7745c-.2669.26698-.2669.6999 0 .96695.267.26699.6998.26699.9668 0l5.7737-5.7745c.3878-.38793.9033-.60145 1.4518-.60145h.0012l11.2868.00629.6335.6342-2.5365 2.53679c-1.0755-.64432-2.4935-.50382-3.4194.42204-.5289.52905-.8201 1.23237-.8201 1.98047s.2912 1.45142.8201 1.98046c.546.546 1.2631.819 1.9803.819.7171 0 1.4342-.273 1.9801-.819.9244-.92456 1.0658-2.33995.425-3.41513l2.5367-2.53713.6446.64548-.0062 11.27329c-.0004.548-.2139 1.0633-.6015 1.4509l-16.6812 16.6837c-.3878.3878-.9035.6014-1.4518.6014-.5484 0-1.0641-.2136-1.4519-.6014l-11.47149-11.4734c-.38787-.3878-.60142-.9035-.60142-1.452s.21355-1.0642.60142-1.452l7.36873-7.3699c.26695-.267.26695-.6999 0-.9669-.26701-.267-.69972-.267-.9668 0l-7.36873 7.3698c-.645999.6461-1.00181 1.5052-1.00181 2.419s.355811 1.7729 1.00181 2.419l11.47149 11.4733c.6669.6669 1.5427 1.0004 2.4187 1.0004.8759 0 1.7517-.3335 2.4186-1.0004l16.6812-16.6838c.6455-.6456 1.0012-1.504 1.0018-2.4171l.0064-11.55653c.0001-.18132-.0718-.35525-.2-.48351zm-5.7404 5.10591c-.2707.27075-.6306.41986-1.0133.41986-.3829 0-.7427-.14911-1.0134-.41986-.5589-.55885-.5589-1.46824 0-2.02709.2794-.2795.6463-.41917 1.0134-.41917.1382 0 .2764.01989.4099.05955l-.789.78912c-.2669.26698-.2669.6999 0 .96695.1335.13353.3085.20026.4834.20026s.3499-.06673.4834-.20026l.7868-.78693c.1421.48672.0219 1.0345-.3612 1.41757z"/><path d="m29.2004 13.7645-7.9665-7.96781c-1.0554-1.05549-2.7726-1.05535-3.8278 0l-12.60692 12.60891c-.51126.5112-.79283 1.191-.79283 1.9141s.2815 1.403.79276 1.9142l7.96659 7.9677c.5113.5113 1.1909.793 1.9139.793.7229 0 1.4027-.2816 1.9138-.7929l12.607-12.6089c.5113-.5113.7928-1.1911.7928-1.9142 0-.723-.2815-1.4028-.7928-1.9141zm-.9668 2.8613-12.6069 12.6091c-.2529.2529-.5893.3923-.9471.3923-.3577 0-.6941-.1394-.947-.3924l-7.96668-7.9678c-.253-.253-.39232-.5894-.39232-.9472-.00006-.3579.13932-.6943.39232-.9473l12.60698-12.60885c.2611-.26118.6041-.39176.9471-.39176s.686.13065.9471.39176l7.9665 7.96775c.253.253.3923.5894.3923.9472s-.1393.6943-.3923.9472z"/><path d="m22.2904 13.677c.267-.267.267-.6999 0-.967-.267-.267-.6997-.267-.9668 0l-.3936.3937c-1.051-.6493-2.3996-.5622-3.2521.2903-.4971.4972-.7514 1.1722-.7161 1.9009.0341.7036.3371 1.3753.853 1.8913.0001.0001.0001.0001.0001.0002.5499.5501.6112 1.3837.1368 1.8582-.4746.4745-1.3082.4131-1.8582-.1369-.55-.5502-.6114-1.3839-.1369-1.8585.2669-.267.2669-.6999 0-.9669-.267-.267-.6997-.267-.9668 0-.8525.8525-.9395 2.2013-.2903 3.2526l-.4671.467c-.2669.267-.2669.6999 0 .967.1339.1336.3088.2004.4837.2004.175 0 .3499-.0668.4834-.2003l.4673-.4674c.4593.2837.9751.4274 1.4818.4274.6527-.0001 1.2901-.2375 1.77-.7175 1.0073-1.0075.9461-2.7082-.1364-3.7915-.0002-.0002-.0003-.0004-.0005-.0006-.2752-.2753-.4366-.6271-.4542-.9907-.0163-.3386.0963-.6467.3173-.8677.4744-.4746 1.3078-.4132 1.8579.1367.0001.0001.0001.0002.0001.0002.0001.0001.0002.0001.0002.0001.5499.5502.6112 1.3837.1367 1.8583-.267.267-.267.6999 0 .9669.1335.1336.3084.2003.4834.2003.1749 0 .3498-.0667.4833-.2003.8525-.8526.9396-2.2014.2904-3.2526z"/><path d="m15.3719 25.0116-3.511-3.5116c-.267-.2668-.6997-.2669-.9668 0-.267.267-.267.6999 0 .967l3.511 3.5116c.1335.1334.3085.2002.4834.2002s.3499-.0668.4834-.2002c.2669-.267.2669-.6999 0-.967z"/><path d="m9.98812 19.6269c-.12708-.1271-.30284-.2003-.48324-.2003-.17978 0-.35547.0732-.4833.2003-.12715.1272-.20029.3036-.20029.4841 0 .1798.07308.3562.20029.4834.12715.1271.30352.2003.4833.2003.18047 0 .35616-.0732.48324-.2003.12778-.1279.20098-.3036.20098-.4834 0-.1805-.0732-.3562-.20098-.4841z"/></g></symbol><symbol id="icon-suppliers" viewBox="0 0 35 35"><g fill="#00b2ff"><path d="m31.2638 27.8931c.3752-.5185.5971-1.1547.5971-1.842v-4.1077c0-.3776-.3061-.6836-.6836-.6836h-3.0551c-1.4123 0-2.5613 1.1489-2.5613 2.5613v2.23c0 .6869.2217 1.3227.5964 1.841-.4673.0758-.9169.2255-1.3362.4446-.9498-1.4172-2.5059-2.3946-4.294-2.5595-.007-.002-.0141-.0034-.0211-.0051.6397-.7144 1.0297-1.657 1.0297-2.6892v-5.5829c0-.3775-.3061-.6836-.6836-.6836h-4.1522c-1.7842 0-3.2356 1.4515-3.2356 3.2356v3.0308c0 1.0323.39 1.9748 1.0297 2.6892-.007.0017-.0141.0032-.0211.0052-1.7883.1648-3.3445 1.1424-4.2942 2.5598-.41944-.2191-.86911-.3689-1.33621-.4447.37475-.5183.59657-1.1542.59657-1.8412v-4.1077c0-.3776-.30611-.6836-.68359-.6836h-3.05512c-1.4123 0-2.56129 1.1489-2.56129 2.5613v2.23c0 .6874.22197 1.3235.59712 1.842-2.11593.3458-3.73618 2.186-3.73618 4.3982v2.0251c0 .3776.306113.6836.683594.6836h33.632806c.3775 0 .6836-.306.6836-.6836v-2.0251c0-2.2122-1.6203-4.0524-3.7362-4.3982zm-26.75755-4.072c0-.6585.53566-1.1941 1.1941-1.1941h2.37153v.8325c0 .4082-.33209.7403-.74027.7403h-2.82536zm0 1.7459h2.82536c.26045 0 .50983-.0478.74027-.1346v.6187c0 .983-.79974 1.7828-1.78282 1.7828-.98307 0-1.78281-.7998-1.78281-1.7828zm2.22353 3.6341-.44072.4407-.44071-.4407zm2.46811 2.3629v2.0688h-7.8307v-1.3415c0-1.5333 1.12266-2.8087 2.58897-3.0489l1.84953 1.8495c.12825.1282.30208.2002.48337.2002s.35513-.072.48337-.2002l1.85008-1.8502c.32676.0532.64101.1586.93386.3127-.2316.6265-.35848 1.3035-.35848 2.0096zm8.30221-5.8125c-1.4715 0-2.6686-1.1972-2.6686-2.6686v-.9035h4.0855c.453 0 .8795-.1157 1.2516-.319v1.2225c0 1.4714-1.1971 2.6686-2.6685 2.6686zm1.1915 1.3671-1.1916 1.1916-1.1916-1.1916zm-3.8602-7.0666h.0001c0-1.0303.8381-1.8684 1.8684-1.8684h3.4686v1.377c0 .6902-.5615 1.2517-1.2516 1.2517h-4.0855zm9.6035 13.5808h-1.3294-11.211-1.3294v-1.3672h4.4512c.3775 0 .6836-.306.6836-.6836 0-.3775-.3061-.6836-.6836-.6836h-4.4012c.293-1.9428 1.8482-3.4764 3.8007-3.7389l2.6008 2.6008c.1335.1335.3085.2002.4834.2002s.3499-.0667.4834-.2002l2.6008-2.6008c2.1708.2918 3.8507 2.1551 3.8507 4.4045zm2.4932-9.8117c0-.6585.5357-1.1941 1.1941-1.1941h2.3715v.8325c0 .4082-.332.7403-.7402.7403h-2.8254zm0 1.7459h2.8254c.2604 0 .5098-.0478.7402-.1346v.6187c0 .983-.7997 1.7828-1.7828 1.7828-.983 0-1.7828-.7998-1.7828-1.7828zm2.2235 3.6341-.4407.4407-.4407-.4407zm-3.3496 4.4317v-2.0688c0-.7062-.1268-1.3831-.3585-2.0098.2927-.1542.6069-.2595.9337-.3126l1.8503 1.8503c.1282.1282.3021.2002.4834.2002s.3551-.072.4833-.2002l1.8496-1.8495c1.4663.2402 2.5889 1.5156 2.5889 3.0489v1.3415z"/><path d="m20.8689 4.4665c-.267-.26694-.6997-.26694-.9668 0l-3.3544 3.35447-1.4501-1.45011c-.267-.26701-.6997-.26701-.9667-.00007s-.267.6998 0 .96681l1.9334 1.93347c.1283.12818.3021.20023.4834.20023s.3551-.07205.4834-.20023l3.8378-3.83783c.267-.26694.267-.69979 0-.96674z"/><path d="m20.295.592814c-.3447-.15374-.7489.001094-.9027.345898-.1538.344808.0011.749018.3459.902758 1.9823.88409 3.2633 2.85742 3.2633 5.02728 0 3.03352-2.468 5.50145-5.5015 5.50145-3.0336 0-5.5015-2.46793-5.5015-5.50145 0-2.15865 1.2717-4.12788 3.2397-5.01676.3441-.15538.4971-.56034.3416-.904391-.1554-.344121-.5605-.497041-.9043-.34166-2.4567 1.109611-4.0442 3.567881-4.0442 6.262741 0 3.78742 3.0813 6.86872 6.8687 6.86872 3.7873 0 6.8686-3.0813 6.8686-6.86865 0-2.70888-1.599-5.17234-4.0736-6.275936z"/><path d="m17.5245 0h-.0245c-.3775 0-.6836.306045-.6836.683594 0 .377546.3061.683596.6836.683596h.018.0033c.3761 0 .6818-.30393.6836-.680383.0017-.377549-.3029-.68502966-.6804-.686807z"/><path d="m17.9832 31.0987c-.127-.1271-.3034-.2003-.4832-.2003s-.3562.0732-.4833.2003c-.1271.1272-.2003.3035-.2003.4833s.0731.3562.2003.4833c.1272.1272.3035.2003.4833.2003s.3562-.0731.4832-.2003c.1272-.1271.2004-.3035.2004-.4833s-.0732-.3561-.2004-.4833z"/></g></symbol><symbol id="icon-time" viewBox="0 0 29 35"><g fill="#00b2ff"><path d="m3.18833 11.6622-1.48642-1.4718c-.807529-.79926-.807529-2.10023 0-2.89998.80754-.79948 2.1216-.79948 2.92913 0l1.58702 1.5712c1.65552-1.14155 3.54274-1.93169 5.52004-2.31087v-2.03903h-1.381c-.38134 0-.69043-.30602-.69043-.6836v-1.77734c0-1.130866.92913-2.05078 2.07143-2.05078h5.5238c1.1423 0 2.0714.919914 2.0714 2.05078v1.77734c0 .37758-.3091.6836-.6904.6836h-1.381v2.03903c1.977.37891 3.8645 1.16932 5.52 2.31087l1.5871-1.5712c.8072-.79948 2.1213-.79948 2.9291 0 .8075.79948.8075 2.10045 0 2.89998l-1.4864 1.4718c2.0603 2.5408 3.1883 5.7056 3.1883 8.9823 0 7.9156-6.5048 14.3555-14.5 14.3555-7.99523 0-14.50000191-6.4399-14.50000191-14.3555 0-3.2767 1.12796191-6.4415 3.18833191-8.9823zm.46634-3.40514c-.26945-.26649-.7072-.26622-.97638 0-.26891.2665-.26891.70015 0 .96665l1.4268 1.41229c.32151-.3268.65865-.63844 1.00929-.93351zm14.29773-6.20628c0-.37704-.3097-.68359-.6905-.68359h-5.5238c-.3808 0-.6905.30655-.6905.68359v1.09375h6.9048zm-4.8334 2.46094v1.84196c.9152-.08491 1.8465-.08491 2.762 0v-1.84196zm13.2027 3.74534c-.2692-.26622-.7072-.26649-.9764 0l-1.4597 1.44543c.3507.29507.6878.60671 1.0093.93351l1.4268-1.41229c.2689-.2665.2689-.70015 0-.96665zm-11.8217 25.37574c7.2338 0 13.119-5.8266 13.119-12.9883 0-3.1592-1.1584-6.203-3.2616-8.5713-.5794-.6524-1.2259-1.2484-1.9215-1.7723-1.7432-1.31324-3.8065-2.17762-5.967-2.49992-.6465-.09586-1.3089-.14473-1.9689-.14473s-1.3224.04887-1.9687.14473c-2.1607.3223-4.22401 1.18668-5.96746 2.49992-.69533.5239-1.34185 1.1199-1.9212 1.7723-2.10325 2.3683-3.26169 5.4121-3.26169 8.5713 0 7.1617 5.88523 12.9883 13.11905 12.9883z"/><path d="m14.5001 22.6953c-1.1422 0-2.0714-.9199-2.0714-2.0508 0-.891.5772-1.651 1.3809-1.9333v-4.9026c0-.3776.3091-.6836.6905-.6836s.6905.306.6905.6836v4.9026c.8037.2823 1.3809 1.0423 1.3809 1.9333 0 1.1309-.9291 2.0508-2.0714 2.0508zm0-2.7344c-.3808 0-.6905.3066-.6905.6836 0 .3771.3097.6836.6905.6836s.6905-.3065.6905-.6836c0-.377-.3097-.6836-.6905-.6836z"/><path d="m7.14458 13.4326c.01078-.0126.02157-.0251.03371-.0369.01295-.0131.0267-.0248.04046-.0366 1.21696-1.192 2.72037-2.074 4.35185-2.5509.366-.1068.7499.0999.8577.462.1079.3621-.1008.7423-.4666.8491-1.2088.3536-2.33653.9645-3.29781 1.7803l.4658.4612c.26945.267.26945.6999 0 .9669-.13485.1335-.31152.2003-.48845.2003-.17667 0-.35333-.0668-.48819-.2003l-.46688-.4622c-1.24933 1.4382-1.99132 3.2086-2.13589 5.0954h.66404c.38138 0 .69048.3063.69048.6836 0 .3776-.3091.6836-.69048.6836h-.66404c.14457 1.8871.88656 3.6572 2.13589 5.0954l.46688-.4622c.26972-.2668.70693-.2668.97664 0 .26972.267.26972.6999 0 .9669l-.46687.4622c1.45268 1.2369 3.24088 1.9715 5.14678 2.1149v-.6577c0-.3776.3091-.6836.6904-.6836.3814 0 .6905.306.6905.6836v.6574c1.9058-.1431 3.6941-.8777 5.1468-2.1146l-.4669-.4622c-.2697-.267-.2697-.6999 0-.9669.2697-.2668.7069-.2668.9766 0l.4669.4622c1.2493-1.4382 1.9913-3.2086 2.1359-5.0954h-.6641c-.3813 0-.6904-.306-.6904-.6836s.3091-.6836.6904-.6836h.6641c-.1446-1.8868-.8866-3.6572-2.1359-5.0954l-.4669.4622c-.1348.1335-.3115.2003-.4882.2003-.1769 0-.3536-.0668-.4884-.2003-.2695-.267-.2695-.6999 0-.9669l.4658-.4612c-.9613-.816-2.089-1.4267-3.2979-1.7803-.3657-.1068-.5745-.487-.4666-.8491s.4915-.5685.8577-.462c1.6313.4767 3.1341 1.3584 4.3508 2.5499.0143.012.0284.0243.0416.0374.0118.0117.0224.024.0332.0363 1.9363 1.9349 3.0022 4.4941 3.0022 7.2127 0 2.7183-1.0659 5.2773-3.0017 7.2119-.0108.0126-.0216.0251-.0337.0369-.0119.012-.0243.0224-.0367.0331-1.9544 1.9167-4.5391 2.972-7.2851 2.972-2.7457 0-5.33039-1.055-7.28449-2.9715-.01267-.0109-.02535-.0216-.03722-.0336-.01187-.0115-.02239-.0241-.03317-.0361-1.9363-1.9349-3.00223-4.4941-3.00223-7.2127 0-2.7184 1.06593-5.2773 3.00169-7.2119z"/><path d="m14.5 11.7578c-.3812 0-.6905-.3063-.6905-.6836s.3093-.6836.6905-.6836c.3811 0 .6904.3063.6904.6836s-.3093.6836-.6904.6836z"/></g></symbol><symbol id="icon-vector" viewBox="0 0 6 9"><path d="m1 8.5 4-4-4-4" stroke="#fff" stroke-linejoin="round"/></symbol></svg>