<svg width="2243" height="1347" fill="none"><path d="M593.208 633.738v549.352L117.457 908.413l475.751-274.675z" stroke="#EBEBEB"/><circle cx="116.739" cy="908.154" r="5" transform="rotate(-30 116.739 908.154)" fill="#F2F2F2"/><circle cx="592.896" cy="1182.88" r="5" transform="rotate(-30 592.896 1182.88)" fill="#F2F2F2"/><circle cx="593.053" cy="633.154" r="5" transform="rotate(-30 593.053 633.154)" fill="#F2F2F2"/><path d="M721.594 75.381v256.396L499.549 203.579 721.594 75.381zM1964.56 747.777V491.381l222.05 128.198-222.05 128.198zM1608.62 610.625l-475.75 274.674V335.95l475.75 274.675z" stroke="#EBEBEB"/><circle cx="1132.74" cy="335.198" r="5" transform="rotate(30 1132.74 335.198)" fill="#F2F2F2"/><circle cx="1132.9" cy="884.926" r="5" transform="rotate(30 1132.9 884.926)" fill="#F2F2F2"/><circle cx="1609.05" cy="610.198" r="5" transform="rotate(30 1609.05 610.198)" fill="#F2F2F2"/></svg>