<svg fill="none" height="31" viewBox="0 0 36 31" width="36" xmlns="http://www.w3.org/2000/svg"><g fill="#00b2ff"><path d="m18 9.75821c-.3881 0-.7031.31699-.7031.70809 0 .3908.315.708.7031.708s.7031-.3172.7031-.708c0-.3911-.315-.70809-.7031-.70809z"/><path d="m33.8906 14.0066h-2.7358c-1.4423-4.14714-3.5349-11.41886-7.3257-13.476929-1.896-1.028069-3.6881-.310053-4.3622 1.148659-.2867.62011-.8594.9462-1.4669.9462-.6158 0-1.1838-.33329-1.4669-.94565-.6502-1.408923-2.3995-2.192767-4.229-1.298566-3.85149 1.883546-6.00536 9.447886-7.45885 13.626286h-2.73587c-1.16538 0-2.10938.9503-2.10938 2.1242 0 1.171.946198 2.1241 2.10938 2.1241h31.78122c1.1654 0 2.1094-.9506 2.1094-2.1241 0-1.1714-.9462-2.1242-2.1094-2.1242zm-26.57535-2.8323h7.87225c.3884 0 .7031-.3172.7031-.708 0-.3911-.3147-.70807-.7031-.70807h-7.38062c2.11954-5.89598 4.09952-7.60915 5.11142-8.10396 1.1038-.53934 2.0124-.08796 2.3398.62176.5158 1.11575 1.5828 1.76462 2.7419 1.76462 1.1618 0 2.2275-.65136 2.7419-1.76462.337-.72991 1.2503-1.134 2.42-.49979 1.0165.55207 2.9905 2.32221 5.0309 7.98199h-7.3803c-.3884 0-.7031.31697-.7031.70807s.3147.708.7031.708h7.8725c.3554 1.0323.7246 2.0974.98 2.8323h-23.32973c.2546-.733.62292-1.7956.97998-2.8323zm26.57535 5.6645h-31.78122c-.38782 0-.70313-.3178-.70313-.708 0-.3911.31476-.7081.70313-.7081h31.78122c.3878 0 .7032.3175.7032.7081 0 .3908-.3151.708-.7032.708z"/><path d="m16.5938 21.0873h-11.25005c-.38837 0-.70313.3169-.70313.708v2.8322c0 3.5138 2.83887 6.3726 6.32818 6.3726 2.6438 0 4.9839-1.6377 5.9147-4.1048.707-.3247 1.526-.3247 2.233 0 .9308 2.4671 3.2709 4.1045 5.9147 4.1045 3.4893 0 6.3282-2.8585 6.3282-6.3725v-2.8323c0-.3911-.3148-.708-.7032-.708h-11.25c-.3883 0-.7031.3169-.7031.708v.7081h-1.4062v-.7081c0-.3908-.3148-.7077-.7031-.7077zm-5.625 8.4967c-2.71395 0-4.92192-2.2235-4.92192-4.9565v-2.1241h9.84372v2.1241c0 2.7402-2.1961 4.9565-4.9218 4.9565zm9.1406-7.0806h9.8437v2.1241c0 2.733-2.208 4.9565-4.9219 4.9565-2.7325 0-4.9218-2.223-4.9218-4.9565zm-1.4063 1.4161v.708c0 .2263.0129.4517.0363.6755-.4886-.0899-.9902-.0899-1.4788 0 .0234-.2238.0363-.4492.0363-.6755v-.708z"/><path d="m10.9688 26.7516c-1.16323 0-2.10942-.9531-2.10942-2.1242 0-.3911-.31476-.708-.70313-.708s-.70313.3169-.70313.708c0 1.9519 1.57709 3.5403 3.51568 3.5403.3883 0 .7031-.3172.7031-.708 0-.3911-.3148-.7081-.7031-.7081z"/><path d="m25.0312 28.1677c1.9386 0 3.5157-1.5884 3.5157-3.5403 0-.3911-.3148-.708-.7031-.708-.3884 0-.7032.3169-.7032.708 0 1.1711-.9462 2.1242-2.1094 2.1242-.3883 0-.7031.317-.7031.7081 0 .3908.3148.708.7031.708z"/></g></svg>