<svg fill="none" height="35" viewBox="0 0 29 35" width="29" xmlns="http://www.w3.org/2000/svg"><g fill="#00b2ff"><path d="m3.18833 11.6622-1.48642-1.4718c-.807529-.79926-.807529-2.10023 0-2.89998.80754-.79948 2.1216-.79948 2.92913 0l1.58702 1.5712c1.65552-1.14155 3.54274-1.93169 5.52004-2.31087v-2.03903h-1.381c-.38134 0-.69043-.30602-.69043-.6836v-1.77734c0-1.130866.92913-2.05078 2.07143-2.05078h5.5238c1.1423 0 2.0714.919914 2.0714 2.05078v1.77734c0 .37758-.3091.6836-.6904.6836h-1.381v2.03903c1.977.37891 3.8645 1.16932 5.52 2.31087l1.5871-1.5712c.8072-.79948 2.1213-.79948 2.9291 0 .8075.79948.8075 2.10045 0 2.89998l-1.4864 1.4718c2.0603 2.5408 3.1883 5.7056 3.1883 8.9823 0 7.9156-6.5048 14.3555-14.5 14.3555-7.99523 0-14.50000191-6.4399-14.50000191-14.3555 0-3.2767 1.12796191-6.4415 3.18833191-8.9823zm.46634-3.40514c-.26945-.26649-.7072-.26622-.97638 0-.26891.2665-.26891.70015 0 .96665l1.4268 1.41229c.32151-.3268.65865-.63844 1.00929-.93351zm14.29773-6.20628c0-.37704-.3097-.68359-.6905-.68359h-5.5238c-.3808 0-.6905.30655-.6905.68359v1.09375h6.9048zm-4.8334 2.46094v1.84196c.9152-.08491 1.8465-.08491 2.762 0v-1.84196zm13.2027 3.74534c-.2692-.26622-.7072-.26649-.9764 0l-1.4597 1.44543c.3507.29507.6878.60671 1.0093.93351l1.4268-1.41229c.2689-.2665.2689-.70015 0-.96665zm-11.8217 25.37574c7.2338 0 13.119-5.8266 13.119-12.9883 0-3.1592-1.1584-6.203-3.2616-8.5713-.5794-.6524-1.2259-1.2484-1.9215-1.7723-1.7432-1.31324-3.8065-2.17762-5.967-2.49992-.6465-.09586-1.3089-.14473-1.9689-.14473s-1.3224.04887-1.9687.14473c-2.1607.3223-4.22401 1.18668-5.96746 2.49992-.69533.5239-1.34185 1.1199-1.9212 1.7723-2.10325 2.3683-3.26169 5.4121-3.26169 8.5713 0 7.1617 5.88523 12.9883 13.11905 12.9883z"/><path d="m14.5001 22.6953c-1.1422 0-2.0714-.9199-2.0714-2.0508 0-.891.5772-1.651 1.3809-1.9333v-4.9026c0-.3776.3091-.6836.6905-.6836s.6905.306.6905.6836v4.9026c.8037.2823 1.3809 1.0423 1.3809 1.9333 0 1.1309-.9291 2.0508-2.0714 2.0508zm0-2.7344c-.3808 0-.6905.3066-.6905.6836 0 .3771.3097.6836.6905.6836s.6905-.3065.6905-.6836c0-.377-.3097-.6836-.6905-.6836z"/><path d="m7.14458 13.4326c.01078-.0126.02157-.0251.03371-.0369.01295-.0131.0267-.0248.04046-.0366 1.21696-1.192 2.72037-2.074 4.35185-2.5509.366-.1068.7499.0999.8577.462.1079.3621-.1008.7423-.4666.8491-1.2088.3536-2.33653.9645-3.29781 1.7803l.4658.4612c.26945.267.26945.6999 0 .9669-.13485.1335-.31152.2003-.48845.2003-.17667 0-.35333-.0668-.48819-.2003l-.46688-.4622c-1.24933 1.4382-1.99132 3.2086-2.13589 5.0954h.66404c.38138 0 .69048.3063.69048.6836 0 .3776-.3091.6836-.69048.6836h-.66404c.14457 1.8871.88656 3.6572 2.13589 5.0954l.46688-.4622c.26972-.2668.70693-.2668.97664 0 .26972.267.26972.6999 0 .9669l-.46687.4622c1.45268 1.2369 3.24088 1.9715 5.14678 2.1149v-.6577c0-.3776.3091-.6836.6904-.6836.3814 0 .6905.306.6905.6836v.6574c1.9058-.1431 3.6941-.8777 5.1468-2.1146l-.4669-.4622c-.2697-.267-.2697-.6999 0-.9669.2697-.2668.7069-.2668.9766 0l.4669.4622c1.2493-1.4382 1.9913-3.2086 2.1359-5.0954h-.6641c-.3813 0-.6904-.306-.6904-.6836s.3091-.6836.6904-.6836h.6641c-.1446-1.8868-.8866-3.6572-2.1359-5.0954l-.4669.4622c-.1348.1335-.3115.2003-.4882.2003-.1769 0-.3536-.0668-.4884-.2003-.2695-.267-.2695-.6999 0-.9669l.4658-.4612c-.9613-.816-2.089-1.4267-3.2979-1.7803-.3657-.1068-.5745-.487-.4666-.8491s.4915-.5685.8577-.462c1.6313.4767 3.1341 1.3584 4.3508 2.5499.0143.012.0284.0243.0416.0374.0118.0117.0224.024.0332.0363 1.9363 1.9349 3.0022 4.4941 3.0022 7.2127 0 2.7183-1.0659 5.2773-3.0017 7.2119-.0108.0126-.0216.0251-.0337.0369-.0119.012-.0243.0224-.0367.0331-1.9544 1.9167-4.5391 2.972-7.2851 2.972-2.7457 0-5.33039-1.055-7.28449-2.9715-.01267-.0109-.02535-.0216-.03722-.0336-.01187-.0115-.02239-.0241-.03317-.0361-1.9363-1.9349-3.00223-4.4941-3.00223-7.2127 0-2.7184 1.06593-5.2773 3.00169-7.2119z"/><path d="m14.5 11.7578c-.3812 0-.6905-.3063-.6905-.6836s.3093-.6836.6905-.6836c.3811 0 .6904.3063.6904.6836s-.3093.6836-.6904.6836z"/></g></svg>