<svg fill="none" height="35" viewBox="0 0 35 35" width="35" xmlns="http://www.w3.org/2000/svg"><g fill="#00b2ff"><path d="m11.0707 8.58469c-.1271-.12717-.3035-.20032-.4833-.20032s-.3562.07315-.4833.20032c-.12708.12717-.20029.30356-.20029.48338 0 .17981.07314.3562.20029.48337.1271.12724.3035.20032.4833.20032s.3562-.07315.4833-.20032.2003-.30356.2003-.48337c0-.17982-.0731-.35621-.2003-.48338z"/><path d="m34.8 2.85866-.8452-.84635.845-.84512c.2669-.266983.2669-.6999 0-.966952-.267-.2669839-.6998-.2669839-.9668 0l-.8445.844572-.8329-.833975c-.1281-.1282615-.3019-.2004599-.4832-.2005283l-11.5701-.00642672c-.0007 0-.0013 0-.0019 0-.9136 0-1.7726.35579602-2.4186 1.00196002l-5.7737 5.7745c-.2669.26698-.2669.6999 0 .96695.267.26699.6998.26699.9668 0l5.7737-5.7745c.3878-.38793.9033-.60145 1.4518-.60145h.0012l11.2868.00629.6335.6342-2.5365 2.53679c-1.0755-.64432-2.4935-.50382-3.4194.42204-.5289.52905-.8201 1.23237-.8201 1.98047s.2912 1.45142.8201 1.98046c.546.546 1.2631.819 1.9803.819.7171 0 1.4342-.273 1.9801-.819.9244-.92456 1.0658-2.33995.425-3.41513l2.5367-2.53713.6446.64548-.0062 11.27329c-.0004.548-.2139 1.0633-.6015 1.4509l-16.6812 16.6837c-.3878.3878-.9035.6014-1.4518.6014-.5484 0-1.0641-.2136-1.4519-.6014l-11.47149-11.4734c-.38787-.3878-.60142-.9035-.60142-1.452s.21355-1.0642.60142-1.452l7.36873-7.3699c.26695-.267.26695-.6999 0-.9669-.26701-.267-.69972-.267-.9668 0l-7.36873 7.3698c-.645999.6461-1.00181 1.5052-1.00181 2.419s.355811 1.7729 1.00181 2.419l11.47149 11.4733c.6669.6669 1.5427 1.0004 2.4187 1.0004.8759 0 1.7517-.3335 2.4186-1.0004l16.6812-16.6838c.6455-.6456 1.0012-1.504 1.0018-2.4171l.0064-11.55653c.0001-.18132-.0718-.35525-.2-.48351zm-5.7404 5.10591c-.2707.27075-.6306.41986-1.0133.41986-.3829 0-.7427-.14911-1.0134-.41986-.5589-.55885-.5589-1.46824 0-2.02709.2794-.2795.6463-.41917 1.0134-.41917.1382 0 .2764.01989.4099.05955l-.789.78912c-.2669.26698-.2669.6999 0 .96695.1335.13353.3085.20026.4834.20026s.3499-.06673.4834-.20026l.7868-.78693c.1421.48672.0219 1.0345-.3612 1.41757z"/><path d="m29.2004 13.7645-7.9665-7.96781c-1.0554-1.05549-2.7726-1.05535-3.8278 0l-12.60692 12.60891c-.51126.5112-.79283 1.191-.79283 1.9141s.2815 1.403.79276 1.9142l7.96659 7.9677c.5113.5113 1.1909.793 1.9139.793.7229 0 1.4027-.2816 1.9138-.7929l12.607-12.6089c.5113-.5113.7928-1.1911.7928-1.9142 0-.723-.2815-1.4028-.7928-1.9141zm-.9668 2.8613-12.6069 12.6091c-.2529.2529-.5893.3923-.9471.3923-.3577 0-.6941-.1394-.947-.3924l-7.96668-7.9678c-.253-.253-.39232-.5894-.39232-.9472-.00006-.3579.13932-.6943.39232-.9473l12.60698-12.60885c.2611-.26118.6041-.39176.9471-.39176s.686.13065.9471.39176l7.9665 7.96775c.253.253.3923.5894.3923.9472s-.1393.6943-.3923.9472z"/><path d="m22.2904 13.677c.267-.267.267-.6999 0-.967-.267-.267-.6997-.267-.9668 0l-.3936.3937c-1.051-.6493-2.3996-.5622-3.2521.2903-.4971.4972-.7514 1.1722-.7161 1.9009.0341.7036.3371 1.3753.853 1.8913.0001.0001.0001.0001.0001.0002.5499.5501.6112 1.3837.1368 1.8582-.4746.4745-1.3082.4131-1.8582-.1369-.55-.5502-.6114-1.3839-.1369-1.8585.2669-.267.2669-.6999 0-.9669-.267-.267-.6997-.267-.9668 0-.8525.8525-.9395 2.2013-.2903 3.2526l-.4671.467c-.2669.267-.2669.6999 0 .967.1339.1336.3088.2004.4837.2004.175 0 .3499-.0668.4834-.2003l.4673-.4674c.4593.2837.9751.4274 1.4818.4274.6527-.0001 1.2901-.2375 1.77-.7175 1.0073-1.0075.9461-2.7082-.1364-3.7915-.0002-.0002-.0003-.0004-.0005-.0006-.2752-.2753-.4366-.6271-.4542-.9907-.0163-.3386.0963-.6467.3173-.8677.4744-.4746 1.3078-.4132 1.8579.1367.0001.0001.0001.0002.0001.0002.0001.0001.0002.0001.0002.0001.5499.5502.6112 1.3837.1367 1.8583-.267.267-.267.6999 0 .9669.1335.1336.3084.2003.4834.2003.1749 0 .3498-.0667.4833-.2003.8525-.8526.9396-2.2014.2904-3.2526z"/><path d="m15.3719 25.0116-3.511-3.5116c-.267-.2668-.6997-.2669-.9668 0-.267.267-.267.6999 0 .967l3.511 3.5116c.1335.1334.3085.2002.4834.2002s.3499-.0668.4834-.2002c.2669-.267.2669-.6999 0-.967z"/><path d="m9.98812 19.6269c-.12708-.1271-.30284-.2003-.48324-.2003-.17978 0-.35547.0732-.4833.2003-.12715.1272-.20029.3036-.20029.4841 0 .1798.07308.3562.20029.4834.12715.1271.30352.2003.4833.2003.18047 0 .35616-.0732.48324-.2003.12778-.1279.20098-.3036.20098-.4834 0-.1805-.0732-.3562-.20098-.4841z"/></g></svg>