<svg fill="none" height="52" viewBox="0 0 216 52" width="216" xmlns="http://www.w3.org/2000/svg"><path d="m76.9355 24.3369c0-.7243-.1871-1.2695-.5615-1.6357-.3662-.3744-1.0376-.7609-2.0141-1.1597-1.7823-.6755-3.064-1.4648-3.8453-2.3682-.7812-.9114-1.1718-1.9856-1.1718-3.2226 0-1.4974.5289-2.6978 1.5869-3.6011 1.0661-.9114 2.417-1.3672 4.0527-1.3672 1.0905 0 2.063.232 2.9175.6958.8545.4558 1.5096 1.1027 1.9653 1.9409.4639.8383.6958 1.7904.6958 2.8565h-3.5766c0-.8301-.1791-1.4608-.5371-1.8921-.35-.4395-.8586-.6592-1.5259-.6592-.6266 0-1.1149.1872-1.4649.5615-.3499.3663-.5249.8627-.5249 1.4893 0 .4883.1954.9318.586 1.3306.3906.3906 1.0823.7975 2.0752 1.2207 1.7334.6266 2.9907 1.3956 3.7719 2.3071.7894.9115 1.1841 2.0711 1.1841 3.479 0 1.5462-.4923 2.7547-1.477 3.6255s-2.3234 1.3061-4.0161 1.3061c-1.1475 0-2.1932-.236-3.1372-.708-.9441-.472-1.6846-1.1474-2.2217-2.0263-.529-.8789-.7935-1.9165-.7935-3.1128h3.6011c0 1.0254.1994 1.77.5981 2.2339.3988.4638 1.0498.6958 1.9532.6958 1.2532 0 1.8798-.6633 1.8798-1.9898zm11.1573 4.9072c-1.7741 0-3.1576-.5289-4.1504-1.5869-.9929-1.0579-1.4893-2.5716-1.4893-4.541v-1.0498c0-2.0833.4558-3.6906 1.3672-4.8218.9115-1.1312 2.2176-1.6967 3.9185-1.6967 1.6601 0 2.9093.533 3.7475 1.5991.8382 1.0579 1.2655 2.6286 1.2818 4.7119v1.6968h-6.8726c.0488.9765.2645 1.6927.647 2.1484.3825.4476.9725.6714 1.77.6714 1.1556 0 2.12-.3947 2.8931-1.1841l1.3549 2.0874c-.4231.5859-1.0376 1.062-1.8432 1.4282-.8057.3581-1.6805.5371-2.6245.5371zm-2.1729-8.1054h3.4546v-.3174c-.0163-.7894-.1465-1.3875-.3906-1.7944-.2442-.4069-.6673-.6104-1.2695-.6104-.6023 0-1.0417.2157-1.3184.647-.2686.4313-.4272 1.123-.4761 2.0752zm15.3201-2.0142-1.148-.0976c-.9437 0-1.5826.415-1.9162 1.2451v8.728h-3.4668v-13.208h3.2593l.0976 1.4282c.5453-1.1149 1.298-1.6723 2.2581-1.6723.391 0 .708.0528.952.1586zm6.335 4.9927 1.673-8.3252h3.601l-3.626 13.208h-3.296l-3.637-13.208h3.613zm10.523 4.8828h-3.467v-13.208h3.467zm-3.626-16.626c0-.5371.171-.9765.513-1.3183s.797-.5127 1.367-.5127 1.025.1709 1.367.5127.513.7812.513 1.3183c0 .529-.171.9684-.513 1.3184-.333.3499-.789.5249-1.367.5249s-1.038-.175-1.379-.5249c-.334-.35-.501-.7894-.501-1.3184zm11.072 14.0015c1.001 0 1.51-.6511 1.526-1.9531h3.247c-.016 1.4404-.46 2.6041-1.331 3.4912-.87.887-1.993 1.3305-3.369 1.3305-1.701 0-2.999-.5289-3.894-1.5869-.895-1.0579-1.351-2.6163-1.367-4.6753v-1.0498c0-2.0752.439-3.658 1.318-4.7485.887-1.0905 2.194-1.6357 3.919-1.6357 1.456 0 2.604.4516 3.442 1.3549.838.8952 1.266 2.1688 1.282 3.8208h-3.247c-.008-.7405-.13-1.3102-.366-1.709-.236-.3987-.627-.5981-1.172-.5981-.602 0-1.034.2157-1.294.647-.261.4232-.399 1.2492-.415 2.478v1.3428c0 1.0742.053 1.827.158 2.2583.106.4232.281.7365.525.9399.244.1953.59.293 1.038.293zm12.06 2.8686c-1.774 0-3.157-.5289-4.15-1.5869-.993-1.0579-1.489-2.5716-1.489-4.541v-1.0498c0-2.0833.456-3.6906 1.367-4.8218s2.218-1.6967 3.918-1.6967c1.661 0 2.91.533 3.748 1.5991.838 1.0579 1.266 2.6286 1.282 4.7119v1.6968h-6.873c.049.9765.265 1.6927.647 2.1484.383.4476.973.6714 1.77.6714 1.156 0 2.12-.3947 2.893-1.1841l1.355 2.0874c-.423.5859-1.037 1.062-1.843 1.4282-.806.3581-1.68.5371-2.625.5371zm-2.172-8.1054h3.454v-.3174c-.016-.7894-.146-1.3875-.39-1.7944-.245-.4069-.668-.6104-1.27-.6104s-1.042.2157-1.318.647c-.269.4313-.428 1.123-.476 2.0752zm14.734 7.8613v-17.7734h4.699c2.075 0 3.727.6591 4.956 1.9775 1.237 1.3184 1.868 3.125 1.892 5.4199v2.8809c0 2.3356-.618 4.1707-1.855 5.5054-1.229 1.3265-2.926 1.9897-5.09 1.9897zm3.588-14.7827v11.8042h1.075c1.196 0 2.038-.3133 2.526-.94.489-.6347.745-1.7252.77-3.2714v-3.0884c0-1.6602-.232-2.8158-.696-3.4668-.464-.6592-1.254-1.0051-2.368-1.0376zm15.711 15.0268c-1.774 0-3.158-.5289-4.151-1.5869-.992-1.0579-1.489-2.5716-1.489-4.541v-1.0498c0-2.0833.456-3.6906 1.367-4.8218.912-1.1312 2.218-1.6967 3.919-1.6967 1.66 0 2.909.533 3.747 1.5991.839 1.0579 1.266 2.6286 1.282 4.7119v1.6968h-6.872c.048.9765.264 1.6927.647 2.1484.382.4476.972.6714 1.77.6714 1.155 0 2.12-.3947 2.893-1.1841l1.355 2.0874c-.424.5859-1.038 1.062-1.844 1.4282-.805.3581-1.68.5371-2.624.5371zm-2.173-8.1054h3.455v-.3174c-.017-.7894-.147-1.3875-.391-1.7944s-.667-.6104-1.27-.6104c-.602 0-1.041.2157-1.318.647-.268.4313-.427 1.123-.476 2.0752zm12.964 2.9785 1.672-8.3252h3.601l-3.625 13.208h-3.296l-3.638-13.208h3.613zm10.522 4.8828h-3.466v-13.208h3.466zm-3.625-16.626c0-.5371.171-.9765.513-1.3183.341-.3418.797-.5127 1.367-.5127.569 0 1.025.1709 1.367.5127s.513.7812.513 1.3183c0 .529-.171.9684-.513 1.3184-.334.3499-.789.5249-1.367.5249s-1.038-.175-1.38-.5249c-.333-.35-.5-.7894-.5-1.3184zm11.072 14.0015c1.001 0 1.509-.6511 1.525-1.9531h3.248c-.017 1.4404-.46 2.6041-1.331 3.4912-.871.887-1.994 1.3305-3.369 1.3305-1.701 0-2.999-.5289-3.894-1.5869-.895-1.0579-1.351-2.6163-1.367-4.6753v-1.0498c0-2.0752.439-3.658 1.318-4.7485.887-1.0905 2.193-1.6357 3.918-1.6357 1.457 0 2.605.4516 3.443 1.3549.838.8952 1.265 2.1688 1.282 3.8208h-3.248c-.008-.7405-.13-1.3102-.366-1.709-.236-.3987-.626-.5981-1.172-.5981-.602 0-1.033.2157-1.294.647-.26.4232-.398 1.2492-.415 2.478v1.3428c0 1.0742.053 1.827.159 2.2583.106.4232.281.7365.525.9399.244.1953.59.293 1.038.293zm12.06 2.8686c-1.774 0-3.157-.5289-4.15-1.5869-.993-1.0579-1.489-2.5716-1.489-4.541v-1.0498c0-2.0833.455-3.6906 1.367-4.8218.911-1.1312 2.217-1.6967 3.918-1.6967 1.66 0 2.909.533 3.748 1.5991.838 1.0579 1.265 2.6286 1.281 4.7119v1.6968h-6.872c.049.9765.264 1.6927.647 2.1484.382.4476.972.6714 1.77.6714 1.155 0 2.12-.3947 2.893-1.1841l1.355 2.0874c-.423.5859-1.038 1.062-1.843 1.4282-.806.3581-1.681.5371-2.625.5371zm-2.173-8.1054h3.455v-.3174c-.016-.7894-.147-1.3875-.391-1.7944s-.667-.6104-1.269-.6104-1.042.2157-1.319.647c-.268.4313-.427 1.123-.476 2.0752z" fill="#203c42"/><path d="m70.9473 44.9609 1.289-4.3007h1.5176l-2.5195 7.3007c-.3867 1.0664-1.043 1.5996-1.9688 1.5996-.207 0-.4355-.0351-.6855-.1054v-1.1016l.2695.0176c.3594 0 .6289-.0664.8086-.1992.1836-.1289.3281-.3477.4336-.6563l.2051-.5449-2.2266-6.3105h1.5352zm7.3945.2871 1.875-4.5878h1.7812v6.3398h-1.4238v-4.1953l-1.7461 4.1953h-.9668l-1.7519-4.2188v4.2188h-1.4239v-6.3398h1.793zm10.6289 1.752h-1.4238v-2.5605h-2.4668v2.5605h-1.4239v-6.3398h1.4239v2.6425h2.4668v-2.6425h1.4238zm3.0527-4.3242h1.3946c.5195 0 .9726.0898 1.3593.2695.3868.1797.6797.4317.8789.7559.2032.3242.3047.7011.3047 1.1308 0 .6524-.2304 1.1758-.6914 1.5703-.4609.3946-1.0742.5938-1.8398.5977h-2.8301v-6.3398h1.4238zm6.4161 4.3242h-1.4239v-6.3398h1.4239zm-6.4161-3.1816v2.0449h1.3887c.3477 0 .6211-.086.8203-.2578.2031-.1758.3047-.4239.3047-.7442s-.0996-.5722-.2988-.7558c-.1953-.1875-.461-.2832-.7969-.2871zm10.9156 3.2988c-.902 0-1.634-.2832-2.197-.8496-.558-.5703-.8377-1.3281-.8377-2.2735v-.1757c0-.6329.1207-1.1973.3637-1.6934.246-.5.589-.8887 1.031-1.166.441-.2774.933-.416 1.476-.416.864 0 1.53.2754 1.998.8261.473.5508.709 1.3301.709 2.3379v.5742h-4.142c.043.5235.217.9376.521 1.2422.309.3047.696.4571 1.16.4571.653 0 1.184-.2637 1.594-.791l.768.7324c-.254.3789-.594.6738-1.02.8847-.422.2071-.896.3106-1.424.3106zm-.169-5.4317c-.391 0-.708.1368-.95.4102-.238.2734-.39.6543-.457 1.1426h2.713v-.1055c-.031-.4766-.158-.8359-.381-1.0781-.222-.2461-.531-.3692-.925-.3692zm11.8.1055h-2.056v5.209h-1.424v-5.209h-2.033v-1.1308h5.513zm3.369 5.3262c-.902 0-1.634-.2832-2.197-.8496-.558-.5703-.838-1.3281-.838-2.2735v-.1757c0-.6329.121-1.1973.364-1.6934.246-.5.589-.8887 1.031-1.166.441-.2774.933-.416 1.476-.416.864 0 1.53.2754 1.998.8261.473.5508.709 1.3301.709 2.3379v.5742h-4.142c.043.5235.217.9376.521 1.2422.309.3047.696.4571 1.16.4571.653 0 1.184-.2637 1.594-.791l.768.7324c-.254.3789-.594.6738-1.02.8847-.422.2071-.896.3106-1.424.3106zm-.169-5.4317c-.391 0-.708.1368-.95.4102-.238.2734-.39.6543-.457 1.1426h2.713v-.1055c-.031-.4766-.158-.8359-.381-1.0781-.222-.2461-.531-.3692-.925-.3692zm6.099 1.0606 1.207-2.0859h1.582l-1.939 3.123 2.004 3.2168h-1.571l-1.265-2.168-1.26 2.168h-1.582l2.004-3.2168-1.934-3.123h1.571zm9.129 4.2539h-1.424v-2.5605h-2.467v2.5605h-1.423v-6.3398h1.423v2.6425h2.467v-2.6425h1.424zm1.254-3.2285c0-.6211.123-1.1797.369-1.6758.246-.5.592-.8828 1.037-1.1484.446-.2696.957-.4043 1.535-.4043.856 0 1.549.2754 2.08.8261.536.5508.825 1.2813.868 2.1914l.005.334c0 .625-.121 1.1836-.363 1.6758-.238.4922-.582.8731-1.031 1.1426-.445.2695-.961.4043-1.547.4043-.894 0-1.611-.2969-2.15-.8906-.535-.5977-.803-1.3926-.803-2.3848zm1.424.123c0 .6524.135 1.1641.404 1.5352.27.3672.645.5508 1.125.5508.481 0 .854-.1875 1.119-.5625.27-.375.405-.9239.405-1.6465 0-.6406-.139-1.1485-.417-1.5235-.273-.375-.646-.5625-1.119-.5625-.464 0-.834.1856-1.107.5567-.274.3672-.41.918-.41 1.6523zm10.969-3.2343v6.3398h-1.424v-5.1914h-1.793l-.117 2.209c-.075 1.0625-.28 1.8262-.616 2.291-.332.4609-.841.6914-1.529.6914h-.439l-.006-1.1836.293-.0293c.312-.043.539-.2324.679-.5683.145-.3399.237-.9571.276-1.8516l.117-2.707zm1.248 3.1113c0-.6211.123-1.1797.369-1.6758.246-.5.592-.8828 1.037-1.1484.445-.2696.957-.4043 1.535-.4043.855 0 1.549.2754 2.08.8261.535.5508.824 1.2813.867 2.1914l.006.334c0 .625-.121 1.1836-.363 1.6758-.238.4922-.582.8731-1.031 1.1426-.446.2695-.961.4043-1.547.4043-.895 0-1.612-.2969-2.151-.8906-.535-.5977-.802-1.3926-.802-2.3848zm1.423.123c0 .6524.135 1.1641.405 1.5352.269.3672.644.5508 1.125.5508.48 0 .853-.1875 1.119-.5625.269-.375.404-.9239.404-1.6465 0-.6406-.139-1.1485-.416-1.5235-.273-.375-.646-.5625-1.119-.5625-.465 0-.834.1856-1.107.5567-.274.3672-.411.918-.411 1.6523zm9.897-2.0859h-2.754v5.1914h-1.418v-6.3398h4.172zm4.764-1.1484h1.418v6.3398h-1.418v-4.2305l-2.485 4.2305h-1.418v-6.3398h1.418v4.2304zm6.89 0h1.418v6.3398h-1.418v-4.2305l-2.484 4.2305h-1.418v-6.3398h1.418v4.2304z" fill="#788891"/><g fill="#00b2ff"><path d="m32.0668 13.8665c1.1284 0 2.0817.7271 2.4405 1.7333h8.9856c.3588-1.0062 1.3121-1.7333 2.4405-1.7333 1.4335 0 2.6 1.1665 2.6 2.5999 0 1.4335-1.1665 2.6-2.6 2.6-1.1284 0-2.0817-.7272-2.4405-1.7333h-8.9865c-.3588 1.0061-1.3121 1.7333-2.4405 1.7333-1.4335 0-2.6-1.1665-2.6-2.6 0-1.4334 1.1674-2.5999 2.6009-2.5999zm13.8666 3.4666c.4776 0 .8667-.3883.8667-.8667s-.3891-.8666-.8667-.8666c-.4775 0-.8666.3882-.8666.8666s.3891.8667.8666.8667zm-13.8666 0c.4775 0 .8666-.3883.8666-.8667s-.3891-.8666-.8666-.8666c-.4776 0-.8667.3882-.8667.8666s.3891.8667.8667.8667z"/><path d="m25.1333 19.2259v-5.3594c0-.2305.091-.4507.2539-.6127l3.4667-3.46664c.162-.16293.383-.25393.6127-.25393h2.7595c.3588-1.00618 1.3121-1.7333 2.4405-1.7333 1.4335 0 2.6 1.16651 2.6 2.59997 0 1.4334-1.1665 2.5999-2.6 2.5999-1.1284 0-2.0817-.7271-2.4405-1.7333h-2.4007l-2.9588 2.9588v5.0006c1.0062.3588 1.7333 1.3121 1.7333 2.4405 0 1.4334-1.1665 2.5999-2.6 2.5999-1.4334 0-2.6-1.1665-2.6-2.5999 0-1.1284.7272-2.0817 1.7334-2.4405zm9.5333-7.9594c.4775 0 .8667-.3882.8667-.8666 0-.47841-.3892-.86667-.8667-.86667s-.8667.38826-.8667.86667c0 .4784.3892.8666.8667.8666zm-8.6667 11.2665c.4776 0 .8667-.3882.8667-.8666s-.3891-.8667-.8667-.8667c-.4775 0-.8666.3883-.8666.8667s.3891.8666.8666.8666z"/><path d="m9.53333 22.533c.4004 0 .77477.0979 1.11367.2608l1.4863-1.4863v-8.3077c0-.2305.091-.4507.254-.6127l8.6736-8.6735c-.163-.33886-.2609-.71325-.2609-1.11364 0-1.43345 1.1665-2.59996 2.6-2.59996s2.6 1.16651 2.6 2.59996c0 1.43344-1.1665 2.59995-2.6 2.59995-.4004 0-.7748-.09793-1.1137-.26086l-8.4196 8.41955v8.3077c0 .2305-.091.4507-.254.6127l-1.7402 1.7403c.1629.3388.2608.7132.2608 1.1136 0 1.4335-1.1665 2.6-2.59997 2.6s-2.6-1.1665-2.6-2.6c0-1.4334 1.16653-2.5999 2.6-2.5999zm13.86667-19.06639c.4775 0 .8667-.38826.8667-.86665 0-.4784-.3892-.86666-.8667-.86666s-.8667.38826-.8667.86666c0 .47839.3892.86665.8667.86665zm-13.86667 22.53299c.47757 0 .86667-.3883.86667-.8667s-.3891-.8666-.86667-.8666c-.47753 0-.86666.3882-.86666.8666s.38913.8667.86666.8667z"/><path d="m1.73328 12.2926v-3.62608c0-.23053.091-.45066.25394-.61272l6.06666-6.06657c.16207-.16293.38307-.25393.61274-.25393h4.49278c.3588-1.006179 1.3122-1.7333 2.4406-1.7333 1.4334 0 2.6 1.16651 2.6 2.59996 0 1.43344-1.1666 2.59995-2.6 2.59995-1.1284 0-2.0818-.72712-2.4406-1.7333h-4.13398l-5.5588 5.55871v3.26728c1.0062.3588 1.73333 1.3121 1.73333 2.4405 0 1.4334-1.16653 2.5999-2.6 2.5999s-2.59999959-1.1665-2.59999959-2.5999c0-1.1284.72713459-2.0817 1.73332959-2.4405zm13.86672-8.82599c.4775 0 .8666-.38826.8666-.86665 0-.4784-.3891-.86666-.8666-.86666-.4776 0-.8667.38826-.8667.86666 0 .47839.3891.86665.8667.86665zm-13.00005 12.13309c.47753 0 .86667-.3882.86667-.8666s-.38914-.8667-.86667-.8667-.86667.3883-.86667.8667.38914.8666.86667.8666z"/><path d="m13.8658 46.9595v-12.4529c-1.0054-.3588-1.7325-1.3121-1.7325-2.4405 0-1.4334 1.1665-2.6 2.6-2.6 1.1284 0 2.0817.7272 2.4405 1.7334h8.9856c.3588-1.0062 1.3122-1.7334 2.4406-1.7334s2.0817.7272 2.4405 1.7334h5.0007l3.2196-3.2197c-.1629-.3388-.2608-.7132-.2608-1.1136 0-1.4335 1.1665-2.6 2.6-2.6 1.4334 0 2.6 1.1665 2.6 2.6 0 1.4334-1.1666 2.5999-2.6 2.5999-.4004 0-.7748-.0979-1.1137-.2608l-3.4736 3.4735c-.1621.163-.3831.254-.6127.254h-5.3595c-.3588 1.0061-1.3121 1.7333-2.4405 1.7333s-2.0818-.7272-2.4406-1.7333h-8.9864c-.2618.734-.8398 1.3121-1.5739 1.5738v12.4529c1.0062.3588 1.7333 1.3121 1.7333 2.4405 0 1.4335-1.1665 2.6-2.6 2.6-1.4334 0-2.6-1.1665-2.6-2.6 0-1.1284.7272-2.0817 1.7334-2.4405zm27.7342-19.2267c.4775 0 .8666-.3882.8666-.8666s-.3891-.8667-.8666-.8667c-.4776 0-.8667.3883-.8667.8667s.3891.8666.8667.8666zm-13 5.2c.4775 0 .8666-.3883.8666-.8667s-.3891-.8666-.8666-.8666c-.4776 0-.8667.3882-.8667.8666s.3891.8667.8667.8667zm-13.8667 17.333c.4775 0 .8667-.3883.8667-.8667 0-.4783-.3892-.8666-.8667-.8666s-.8667.3883-.8667.8666c0 .4784.3892.8667.8667.8667zm0-17.333c.4775 0 .8667-.3883.8667-.8667s-.3892-.8666-.8667-.8666-.8667.3882-.8667.8666.3892.8667.8667.8667z"/><path d="m18.2 17.4925v-2.7594c0-.2305.091-.4507.2539-.6127l10.407-10.4068c-.163-.33886-.2609-.71325-.2609-1.11364 0-1.43345 1.1665-2.59996 2.6-2.59996 1.1284 0 2.0817.727121 2.4405 1.7333h3.6262c.4784 0 .8666.3874.8666.86666v2.24116l3.2197 3.21961c.3389-.16293.7133-.26086 1.1137-.26086 1.4334 0 2.6 1.16651 2.6 2.59993 0 1.4335-1.1666 2.6-2.6 2.6-1.4335 0-2.6-1.1665-2.6-2.6 0-.40037.0979-.77476.2608-1.11362l-3.4736-3.47354c-.1629-.16207-.2539-.3822-.2539-.61273v-1.7333h-2.7595c-.3588 1.00618-1.3121 1.7333-2.4405 1.7333-.4004 0-.7748-.09793-1.1137-.26086l-10.153 10.15285v2.4006c1.0062.3588 1.7334 1.3121 1.7334 2.4405 0 1.4334-1.1666 2.6-2.6 2.6-1.4335 0-2.6-1.1666-2.6-2.6 0-1.1284.7271-2.0817 1.7333-2.4405zm24.2667-6.226c.4775 0 .8666-.3883.8666-.8667 0-.47837-.3891-.86663-.8666-.86663-.4776 0-.8667.38826-.8667.86663 0 .4784.3891.8667.8667.8667zm-11.2667-7.79989c.4775 0 .8667-.38826.8667-.86665 0-.4784-.3892-.86666-.8667-.86666s-.8667.38826-.8667.86666c0 .47839.3892.86665.8667.86665zm-12.1333 17.33309c.4775 0 .8666-.3883.8666-.8667s-.3891-.8667-.8666-.8667c-.4776 0-.8667.3883-.8667.8667s.3891.8667.8667.8667z"/><path d="m20.8 24.2663c1.1284 0 2.0817.7271 2.4405 1.7333h10.2007l4.9461-4.946c.162-.163.383-.2539.6127-.2539h9.1745l2.0922-2.0921v-7.0823l-6.6864-6.68625c-.3388.16293-.7132.26086-1.1136.26086-1.4335 0-2.6-1.16651-2.6-2.59995 0-1.43345 1.1665-2.59996 2.6-2.59996 1.4334 0 2.6 1.16651 2.6 2.59996 0 .40039-.098.77478-.2609 1.11364l6.9403 6.9402c.1629.162.2539.3821.2539.6127v7.7998c0 .2306-.091.4507-.2539.6128l-2.6 2.5999c-.1621.163-.3831.254-.6128.254h-9.1745l-4.9461 4.9459c-.162.163-.383.254-.6127.254h-10.5595c-.3588 1.0062-1.3121 1.7333-2.4405 1.7333-1.4335 0-2.6-1.1665-2.6-2.6 0-1.4334 1.1665-2.5999 2.6-2.5999zm21.6667-22.533c-.4776 0-.8667.38826-.8667.86666 0 .47839.3891.86665.8667.86665.4775 0 .8666-.38826.8666-.86665 0-.4784-.3891-.86666-.8666-.86666zm-21.6667 25.9996c.4775 0 .8667-.3883.8667-.8667s-.3892-.8666-.8667-.8666-.8667.3882-.8667.8666.3892.8667.8667.8667z"/><path d="m2.59997 20.7997c.4004 0 .7748.0979 1.11366.2609l3.21967-3.2196v-5.0006c-1.0062-.3588-1.73333-1.3121-1.73333-2.4405 0-1.43346 1.16653-2.59997 2.6-2.59997 1.43346 0 2.60003 1.16651 2.60003 2.59997 0 1.1284-.72717 2.0817-1.73337 2.4405v5.3594c0 .2305-.091.4506-.25393.6127l-3.4736 3.4735c.16294.3389.26087.7133.26087 1.1137 0 1.1283-.72714 2.0817-1.73334 2.4405v.6673l6.67937 6.6793c.163.162.254.3822.254.6127v1.0261c1.0062.3588 1.7333 1.3121 1.7333 2.4405s-.7271 2.0817-1.7333 2.4405v2.0531c1.0062.3588 1.7333 1.3121 1.7333 2.4405 0 1.4334-1.1665 2.5999-2.6 2.5999-1.43347 0-2.6-1.1665-2.6-2.5999 0-1.1284.72713-2.0817 1.73333-2.4405v-2.0531c-1.0062-.3588-1.73333-1.3121-1.73333-2.4405s.72713-2.0817 1.73333-2.4405v-.6673l-6.6794-6.6793c-.16293-.1621-.25393-.3822-.25393-.6127v-1.0261c-1.0062-.3588-1.73333242-1.3122-1.73333242-2.4405 0-1.4335 1.16653242-2.6 2.60000242-2.6zm5.2-9.5332c.47753 0 .86666-.3882.86666-.8666 0-.47841-.38913-.86667-.86666-.86667-.47754 0-.86667.38826-.86667.86667 0 .4784.38913.8666.86667.8666zm1.73333 33.7995c.4775 0 .8667-.3883.8667-.8667s-.3892-.8666-.8667-.8666c-.47753 0-.86667.3882-.86667.8666s.38914.8667.86667.8667zm0-6.9332c.4775 0 .8667-.3883.8667-.8667s-.3892-.8666-.8667-.8666c-.47753 0-.86667.3882-.86667.8666s.38914.8667.86667.8667zm-6.93333-13.8665c.47753 0 .86666-.3882.86666-.8666s-.38913-.8667-.86666-.8667c-.47754 0-.86667.3883-.86667.8667s.38913.8666.86667.8666z"/></g></svg>